<?plantuml 1.2026.2?><svg xmlns="http://www.w3.org/2000/svg" xmlns:xlink="http://www.w3.org/1999/xlink" contentStyleType="text/css" data-diagram-type="CLASS" height="565px" preserveAspectRatio="none" style="width:907px;height:565px;background:#FFFFFF;" version="1.1" viewBox="0 0 907 565" width="907px" zoomAndPan="magnify"><defs/><g><!--class customer--><g class="entity" data-qualified-name="customer" data-source-line="63" id="ent0002"><rect fill="#F1F1F1" height="105.1875" rx="2.5" ry="2.5" style="stroke:#181818;stroke-width:0.5;" width="215.4561" x="339.37" y="452.86"/><ellipse cx="409.8851" cy="468.86" fill="#FFAAAA" rx="11" ry="11" style="stroke:#181818;stroke-width:1;"/><path d="M410.7289,475.61 L408.2758,475.61 L408.2758,465.36 L405.1351,465.36 L405.1351,463.2194 L413.8695,463.2194 L413.8695,465.36 L410.7289,465.36 L410.7289,475.61 Z " fill="#000000"/><text fill="#000000" font-family="sans-serif" font-size="14" lengthAdjust="spacing" textLength="65.9258" x="430.3851" y="473.7067">customer</text><line style="stroke:#181818;stroke-width:0.5;" x1="340.37" x2="553.8261" y1="484.86" y2="484.86"/><path d="M352.7867,492.3235 C351.1767,492.3235 349.87,493.6302 349.87,495.2402 C349.87,495.4269 349.87,495.6135 349.905,495.7885 L346.37,499.3235 L346.37,501.6569 L349.87,501.6569 L349.87,499.3235 L352.2033,499.3235 L352.2033,498.1569 L352.2383,498.1219 C352.4133,498.1569 352.6,498.1569 352.7867,498.1569 C354.3967,498.1569 355.7033,496.8502 355.7033,495.2402 C355.7033,493.6302 354.3967,492.3235 352.7867,492.3235 M353.37,493.4902 C354.0117,493.4902 354.5367,494.0152 354.5367,494.6569 C354.5367,495.2985 354.0117,495.8235 353.37,495.8235 C352.7283,495.8235 352.2033,495.2985 352.2033,494.6569 C352.2033,494.0152 352.7283,493.4902 353.37,493.4902" fill="#FF0000"/><path d="M357.7033,495.8235 L357.7033,498.1569 L367.0367,498.1569 L367.0367,495.8235 L357.7033,495.8235" fill="#000000"/><path d="M369.0367,495.8235 L369.0367,498.1569 L378.37,498.1569 L378.37,495.8235 L369.0367,495.8235" fill="#000000"/><text fill="#000000" font-family="sans-serif" font-size="14" lengthAdjust="spacing" textLength="4.4502" x="379.37" y="501.8551">&#160;</text><text fill="#FF0000" font-family="sans-serif" font-size="14" lengthAdjust="spacing" text-decoration="underline" textLength="62.46" x="383.8202" y="501.8551">id : int11</text><path d="M346.37,512.1204 L346.37,514.4538 L355.7033,514.4538 L355.7033,512.1204 L346.37,512.1204" fill="#000000"/><path d="M357.7033,512.1204 L357.7033,514.4538 L367.0367,514.4538 L367.0367,512.1204 L357.7033,512.1204" fill="#000000"/><path d="M373.7033,508.6204 L373.7033,517.9538 L374.87,517.9538 L374.87,508.6204 L373.7033,508.6204 M371.37,509.7871 L371.37,516.7871 L372.5367,516.7871 L372.5367,509.7871 L371.37,509.7871 M376.0367,510.9537 L376.0367,515.6204 L377.2033,515.6204 L377.2033,510.9537 L376.0367,510.9537 M369.0367,512.1204 L369.0367,514.4538 L370.2033,514.4538 L370.2033,512.1204 L369.0367,512.1204" fill="#000000"/><text fill="#000000" font-family="sans-serif" font-size="14" lengthAdjust="spacing" textLength="156.6934" x="383.8202" y="518.152">identifier : varchar128</text><path d="M346.37,528.4173 L346.37,530.7506 L355.7033,530.7506 L355.7033,528.4173 L346.37,528.4173" fill="#000000"/><path d="M357.7033,528.4173 L357.7033,530.7506 L367.0367,530.7506 L367.0367,528.4173 L357.7033,528.4173" fill="#000000"/><path d="M369.0367,528.4173 L369.0367,530.7506 L378.37,530.7506 L378.37,528.4173 L369.0367,528.4173" fill="#000000"/><text fill="#000000" font-family="sans-serif" font-size="14" lengthAdjust="spacing" textLength="160.4258" x="383.8202" y="534.4489">created_at : datetime6</text><path d="M346.37,544.7142 L346.37,547.0475 L355.7033,547.0475 L355.7033,544.7142 L346.37,544.7142" fill="#000000"/><path d="M357.7033,544.7142 L357.7033,547.0475 L367.0367,547.0475 L367.0367,544.7142 L357.7033,544.7142" fill="#000000"/><path d="M369.0367,544.7142 L369.0367,547.0475 L378.37,547.0475 L378.37,544.7142 L369.0367,544.7142" fill="#000000"/><text fill="#000000" font-family="sans-serif" font-size="14" lengthAdjust="spacing" textLength="165.0059" x="383.8202" y="550.7457">updated_at : datetime6</text></g><!--class learner--><g class="entity" data-qualified-name="learner" data-source-line="70" id="ent0003"><rect fill="#F1F1F1" height="121.4844" rx="2.5" ry="2.5" style="stroke:#181818;stroke-width:0.5;" width="222.1895" x="7" y="246.23"/><ellipse cx="88.8047" cy="262.23" fill="#FFAAAA" rx="11" ry="11" style="stroke:#181818;stroke-width:1;"/><path d="M89.6484,268.98 L87.1953,268.98 L87.1953,258.73 L84.0547,258.73 L84.0547,256.5894 L92.7891,256.5894 L92.7891,258.73 L89.6484,258.73 L89.6484,268.98 Z " fill="#000000"/><text fill="#000000" font-family="sans-serif" font-size="14" lengthAdjust="spacing" textLength="50.0801" x="109.3047" y="267.0767">learner</text><line style="stroke:#181818;stroke-width:0.5;" x1="8" x2="228.1895" y1="278.23" y2="278.23"/><path d="M20.4167,285.6935 C18.8067,285.6935 17.5,287.0002 17.5,288.6102 C17.5,288.7969 17.5,288.9835 17.535,289.1585 L14,292.6935 L14,295.0269 L17.5,295.0269 L17.5,292.6935 L19.8333,292.6935 L19.8333,291.5269 L19.8683,291.4919 C20.0433,291.5269 20.23,291.5269 20.4167,291.5269 C22.0267,291.5269 23.3333,290.2202 23.3333,288.6102 C23.3333,287.0002 22.0267,285.6935 20.4167,285.6935 M21,286.8602 C21.6417,286.8602 22.1667,287.3852 22.1667,288.0269 C22.1667,288.6685 21.6417,289.1935 21,289.1935 C20.3583,289.1935 19.8333,288.6685 19.8333,288.0269 C19.8333,287.3852 20.3583,286.8602 21,286.8602" fill="#FF0000"/><path d="M25.3333,289.1935 L25.3333,291.5269 L34.6667,291.5269 L34.6667,289.1935 L25.3333,289.1935" fill="#000000"/><path d="M36.6667,289.1935 L36.6667,291.5269 L46,291.5269 L46,289.1935 L36.6667,289.1935" fill="#000000"/><text fill="#000000" font-family="sans-serif" font-size="14" lengthAdjust="spacing" textLength="4.4502" x="47" y="295.2251">&#160;</text><text fill="#FF0000" font-family="sans-serif" font-size="14" lengthAdjust="spacing" text-decoration="underline" textLength="131.0996" x="51.4502" y="295.2251">id : int10 unsigned</text><path d="M14,305.4904 L14,307.8237 L23.3333,307.8237 L23.3333,305.4904 L14,305.4904" fill="#000000"/><path d="M25.3333,305.4904 L25.3333,307.8237 L34.6667,307.8237 L34.6667,305.4904 L25.3333,305.4904" fill="#000000"/><path d="M41.3333,301.9904 L41.3333,311.3237 L42.5,311.3237 L42.5,301.9904 L41.3333,301.9904 M39,303.1571 L39,310.1571 L40.1667,310.1571 L40.1667,303.1571 L39,303.1571 M43.6667,304.3237 L43.6667,308.9904 L44.8333,308.9904 L44.8333,304.3237 L43.6667,304.3237 M36.6667,305.4904 L36.6667,307.8237 L37.8333,307.8237 L37.8333,305.4904 L36.6667,305.4904" fill="#000000"/><text fill="#000000" font-family="sans-serif" font-size="14" lengthAdjust="spacing" textLength="135.3857" x="51.4502" y="311.522">customer_id : int11</text><path d="M14,321.7873 L14,324.1206 L23.3333,324.1206 L23.3333,321.7873 L14,321.7873" fill="#000000"/><path d="M25.3333,321.7873 L25.3333,324.1206 L34.6667,324.1206 L34.6667,321.7873 L25.3333,321.7873" fill="#000000"/><path d="M41.3333,318.2873 L41.3333,327.6206 L42.5,327.6206 L42.5,318.2873 L41.3333,318.2873 M39,319.454 L39,326.454 L40.1667,326.454 L40.1667,319.454 L39,319.454 M43.6667,320.6206 L43.6667,325.2873 L44.8333,325.2873 L44.8333,320.6206 L43.6667,320.6206 M36.6667,321.7873 L36.6667,324.1206 L37.8333,324.1206 L37.8333,321.7873 L36.6667,321.7873" fill="#000000"/><text fill="#000000" font-family="sans-serif" font-size="14" lengthAdjust="spacing" textLength="171.7393" x="51.4502" y="327.8189">external_id : varchar255</text><path d="M14,338.0842 L14,340.4175 L23.3333,340.4175 L23.3333,338.0842 L14,338.0842" fill="#000000"/><path d="M25.3333,338.0842 L25.3333,340.4175 L34.6667,340.4175 L34.6667,338.0842 L25.3333,338.0842" fill="#000000"/><path d="M36.6667,338.0842 L36.6667,340.4175 L46,340.4175 L46,338.0842 L36.6667,338.0842" fill="#000000"/><text fill="#000000" font-family="sans-serif" font-size="14" lengthAdjust="spacing" textLength="160.4258" x="51.4502" y="344.1157">created_at : datetime6</text><path d="M14,354.381 L14,356.7144 L23.3333,356.7144 L23.3333,354.381 L14,354.381" fill="#000000"/><path d="M25.3333,354.381 L25.3333,356.7144 L34.6667,356.7144 L34.6667,354.381 L25.3333,354.381" fill="#000000"/><path d="M36.6667,354.381 L36.6667,356.7144 L46,356.7144 L46,354.381 L36.6667,354.381" fill="#000000"/><text fill="#000000" font-family="sans-serif" font-size="14" lengthAdjust="spacing" textLength="165.0059" x="51.4502" y="360.4126">updated_at : datetime6</text></g><!--class learner_attribute--><g class="entity" data-qualified-name="learner_attribute" data-source-line="79" id="ent0005"><rect fill="#F1F1F1" height="154.0781" rx="2.5" ry="2.5" style="stroke:#181818;stroke-width:0.5;" width="249.6152" x="98.29" y="7"/><ellipse cx="159.7749" cy="23" fill="#FFAAAA" rx="11" ry="11" style="stroke:#181818;stroke-width:1;"/><path d="M160.6186,29.75 L158.1655,29.75 L158.1655,19.5 L155.0249,19.5 L155.0249,17.3594 L163.7592,17.3594 L163.7592,19.5 L160.6186,19.5 L160.6186,29.75 Z " fill="#000000"/><text fill="#000000" font-family="sans-serif" font-size="14" lengthAdjust="spacing" textLength="118.1455" x="180.2749" y="27.8467">learner_attribute</text><line style="stroke:#181818;stroke-width:0.5;" x1="99.29" x2="346.9052" y1="39" y2="39"/><path d="M111.7067,46.4635 C110.0967,46.4635 108.79,47.7702 108.79,49.3802 C108.79,49.5669 108.79,49.7535 108.825,49.9285 L105.29,53.4635 L105.29,55.7969 L108.79,55.7969 L108.79,53.4635 L111.1233,53.4635 L111.1233,52.2969 L111.1583,52.2619 C111.3333,52.2969 111.52,52.2969 111.7067,52.2969 C113.3167,52.2969 114.6233,50.9902 114.6233,49.3802 C114.6233,47.7702 113.3167,46.4635 111.7067,46.4635 M112.29,47.6302 C112.9317,47.6302 113.4567,48.1552 113.4567,48.7969 C113.4567,49.4385 112.9317,49.9635 112.29,49.9635 C111.6483,49.9635 111.1233,49.4385 111.1233,48.7969 C111.1233,48.1552 111.6483,47.6302 112.29,47.6302" fill="#FF0000"/><path d="M116.6233,49.9635 L116.6233,52.2969 L125.9567,52.2969 L125.9567,49.9635 L116.6233,49.9635" fill="#000000"/><path d="M127.9567,49.9635 L127.9567,52.2969 L137.29,52.2969 L137.29,49.9635 L127.9567,49.9635" fill="#000000"/><text fill="#000000" font-family="sans-serif" font-size="14" lengthAdjust="spacing" textLength="4.4502" x="138.29" y="55.9951">&#160;</text><text fill="#FF0000" font-family="sans-serif" font-size="14" lengthAdjust="spacing" text-decoration="underline" textLength="62.46" x="142.7402" y="55.9951">id : int11</text><path d="M105.29,66.2604 L105.29,68.5938 L114.6233,68.5938 L114.6233,66.2604 L105.29,66.2604" fill="#000000"/><path d="M116.6233,66.2604 L116.6233,68.5938 L125.9567,68.5938 L125.9567,66.2604 L116.6233,66.2604" fill="#000000"/><path d="M127.9567,66.2604 L127.9567,68.5938 L137.29,68.5938 L137.29,66.2604 L127.9567,66.2604" fill="#000000"/><text fill="#000000" font-family="sans-serif" font-size="14" lengthAdjust="spacing" textLength="199.165" x="142.7402" y="72.292">attribute_id : int10 unsigned</text><path d="M105.29,82.5573 L105.29,84.8906 L114.6233,84.8906 L114.6233,82.5573 L105.29,82.5573" fill="#000000"/><path d="M116.6233,82.5573 L116.6233,84.8906 L125.9567,84.8906 L125.9567,82.5573 L116.6233,82.5573" fill="#000000"/><path d="M127.9567,82.5573 L127.9567,84.8906 L137.29,84.8906 L137.29,82.5573 L127.9567,82.5573" fill="#000000"/><text fill="#000000" font-family="sans-serif" font-size="14" lengthAdjust="spacing" textLength="188.1797" x="142.7402" y="88.5889">learner_id : int10 unsigned</text><path d="M105.29,98.8542 L105.29,101.1875 L114.6233,101.1875 L114.6233,98.8542 L105.29,98.8542" fill="#000000"/><path d="M116.6233,98.8542 L116.6233,101.1875 L125.9567,101.1875 L125.9567,98.8542 L116.6233,98.8542" fill="#000000"/><path d="M127.9567,98.8542 L127.9567,101.1875 L137.29,101.1875 L137.29,98.8542 L127.9567,98.8542" fill="#000000"/><text fill="#000000" font-family="sans-serif" font-size="14" lengthAdjust="spacing" textLength="160.4258" x="142.7402" y="104.8857">created_at : datetime6</text><path d="M105.29,115.151 L105.29,117.4844 L114.6233,117.4844 L114.6233,115.151 L105.29,115.151" fill="#000000"/><path d="M116.6233,115.151 L116.6233,117.4844 L125.9567,117.4844 L125.9567,115.151 L116.6233,115.151" fill="#000000"/><path d="M127.9567,115.151 L127.9567,117.4844 L137.29,117.4844 L137.29,115.151 L127.9567,115.151" fill="#000000"/><text fill="#000000" font-family="sans-serif" font-size="14" lengthAdjust="spacing" textLength="115.3496" x="142.7402" y="121.1826">interest : double</text><path d="M105.29,131.4479 L105.29,133.7813 L114.6233,133.7813 L114.6233,131.4479 L105.29,131.4479" fill="#000000"/><path d="M116.6233,131.4479 L116.6233,133.7813 L125.9567,133.7813 L125.9567,131.4479 L116.6233,131.4479" fill="#000000"/><path d="M127.9567,131.4479 L127.9567,133.7813 L137.29,133.7813 L137.29,131.4479 L127.9567,131.4479" fill="#000000"/><text fill="#000000" font-family="sans-serif" font-size="14" lengthAdjust="spacing" textLength="94.623" x="142.7402" y="137.4795">level : double</text><path d="M105.29,147.7448 L105.29,150.0781 L114.6233,150.0781 L114.6233,147.7448 L105.29,147.7448" fill="#000000"/><path d="M116.6233,147.7448 L116.6233,150.0781 L125.9567,150.0781 L125.9567,147.7448 L116.6233,147.7448" fill="#000000"/><path d="M127.9567,147.7448 L127.9567,150.0781 L137.29,150.0781 L137.29,147.7448 L127.9567,147.7448" fill="#000000"/><text fill="#000000" font-family="sans-serif" font-size="14" lengthAdjust="spacing" textLength="165.0059" x="142.7402" y="153.7764">updated_at : datetime6</text></g><!--class attribute--><g class="entity" data-qualified-name="attribute" data-source-line="88" id="ent0006"><rect fill="#F1F1F1" height="137.7813" rx="2.5" ry="2.5" style="stroke:#181818;stroke-width:0.5;" width="314.1055" x="264.04" y="238.08"/><ellipse cx="386.31" cy="254.08" fill="#FFAAAA" rx="11" ry="11" style="stroke:#181818;stroke-width:1;"/><path d="M387.1538,260.83 L384.7006,260.83 L384.7006,250.58 L381.56,250.58 L381.56,248.4394 L390.2944,248.4394 L390.2944,250.58 L387.1538,250.58 L387.1538,260.83 Z " fill="#000000"/><text fill="#000000" font-family="sans-serif" font-size="14" lengthAdjust="spacing" textLength="61.0654" x="406.81" y="258.9267">attribute</text><line style="stroke:#181818;stroke-width:0.5;" x1="265.04" x2="577.1455" y1="270.08" y2="270.08"/><path d="M277.4567,277.5435 C275.8467,277.5435 274.54,278.8502 274.54,280.4602 C274.54,280.6469 274.54,280.8335 274.575,281.0085 L271.04,284.5435 L271.04,286.8769 L274.54,286.8769 L274.54,284.5435 L276.8733,284.5435 L276.8733,283.3769 L276.9083,283.3419 C277.0833,283.3769 277.27,283.3769 277.4567,283.3769 C279.0667,283.3769 280.3733,282.0702 280.3733,280.4602 C280.3733,278.8502 279.0667,277.5435 277.4567,277.5435 M278.04,278.7102 C278.6817,278.7102 279.2067,279.2352 279.2067,279.8769 C279.2067,280.5185 278.6817,281.0435 278.04,281.0435 C277.3983,281.0435 276.8733,280.5185 276.8733,279.8769 C276.8733,279.2352 277.3983,278.7102 278.04,278.7102" fill="#FF0000"/><path d="M282.3733,281.0435 L282.3733,283.3769 L291.7067,283.3769 L291.7067,281.0435 L282.3733,281.0435" fill="#000000"/><path d="M293.7067,281.0435 L293.7067,283.3769 L303.04,283.3769 L303.04,281.0435 L293.7067,281.0435" fill="#000000"/><text fill="#000000" font-family="sans-serif" font-size="14" lengthAdjust="spacing" textLength="4.4502" x="304.04" y="287.0751">&#160;</text><text fill="#FF0000" font-family="sans-serif" font-size="14" lengthAdjust="spacing" text-decoration="underline" textLength="131.0996" x="308.4902" y="287.0751">id : int10 unsigned</text><path d="M271.04,297.3404 L271.04,299.6737 L280.3733,299.6737 L280.3733,297.3404 L271.04,297.3404" fill="#000000"/><path d="M287.04,293.8404 C284.4733,293.8404 282.3733,295.9404 282.3733,298.5071 C282.3733,301.0737 284.4733,303.1737 287.04,303.1737 C289.6067,303.1737 291.7067,301.0737 291.7067,298.5071 C291.7067,295.9404 289.6067,293.8404 287.04,293.8404 M287.04,295.0071 C287.81,295.0071 288.51,295.2521 289.0817,295.6604 L284.1933,300.5487 C283.785,299.9771 283.54,299.2771 283.54,298.5071 C283.54,296.5704 285.1033,295.0071 287.04,295.0071 M289.8867,296.4654 C290.295,297.0371 290.54,297.7371 290.54,298.5071 C290.54,300.4437 288.9767,302.0071 287.04,302.0071 C286.27,302.0071 285.57,301.7621 284.9983,301.3537 L289.8867,296.4654" fill="#000000"/><path d="M293.7067,297.3404 L293.7067,299.6737 L303.04,299.6737 L303.04,297.3404 L293.7067,297.3404" fill="#000000"/><text fill="#000000" font-family="sans-serif" font-size="14" lengthAdjust="spacing" textLength="263.6553" x="308.4902" y="303.372">mapped_attribute_id : int10 unsigned</text><path d="M271.04,313.6373 L271.04,315.9706 L280.3733,315.9706 L280.3733,313.6373 L271.04,313.6373" fill="#000000"/><path d="M287.04,310.1373 C284.4733,310.1373 282.3733,312.2373 282.3733,314.804 C282.3733,317.3706 284.4733,319.4706 287.04,319.4706 C289.6067,319.4706 291.7067,317.3706 291.7067,314.804 C291.7067,312.2373 289.6067,310.1373 287.04,310.1373 M287.04,311.304 C287.81,311.304 288.51,311.549 289.0817,311.9573 L284.1933,316.8456 C283.785,316.274 283.54,315.574 283.54,314.804 C283.54,312.8673 285.1033,311.304 287.04,311.304 M289.8867,312.7623 C290.295,313.334 290.54,314.034 290.54,314.804 C290.54,316.7406 288.9767,318.304 287.04,318.304 C286.27,318.304 285.57,318.059 284.9983,317.6506 L289.8867,312.7623" fill="#000000"/><path d="M298.3733,310.1373 L298.3733,319.4706 L299.54,319.4706 L299.54,310.1373 L298.3733,310.1373 M296.04,311.304 L296.04,318.304 L297.2067,318.304 L297.2067,311.304 L296.04,311.304 M300.7067,312.4706 L300.7067,317.1373 L301.8733,317.1373 L301.8733,312.4706 L300.7067,312.4706 M293.7067,313.6373 L293.7067,315.9706 L294.8733,315.9706 L294.8733,313.6373 L293.7067,313.6373" fill="#000000"/><text fill="#000000" font-family="sans-serif" font-size="14" lengthAdjust="spacing" textLength="123.4229" x="308.4902" y="319.6689">internal_id : int11</text><path d="M271.04,329.9342 L271.04,332.2675 L280.3733,332.2675 L280.3733,329.9342 L271.04,329.9342" fill="#000000"/><path d="M282.3733,329.9342 L282.3733,332.2675 L291.7067,332.2675 L291.7067,329.9342 L282.3733,329.9342" fill="#000000"/><path d="M293.7067,329.9342 L293.7067,332.2675 L303.04,332.2675 L303.04,329.9342 L293.7067,329.9342" fill="#000000"/><text fill="#000000" font-family="sans-serif" font-size="14" lengthAdjust="spacing" textLength="160.4258" x="308.4902" y="335.9657">created_at : datetime6</text><path d="M271.04,346.231 L271.04,348.5644 L280.3733,348.5644 L280.3733,346.231 L271.04,346.231" fill="#000000"/><path d="M282.3733,346.231 L282.3733,348.5644 L291.7067,348.5644 L291.7067,346.231 L282.3733,346.231" fill="#000000"/><path d="M293.7067,346.231 L293.7067,348.5644 L303.04,348.5644 L303.04,346.231 L293.7067,346.231" fill="#000000"/><text fill="#000000" font-family="sans-serif" font-size="14" lengthAdjust="spacing" textLength="124.8105" x="308.4902" y="352.2626">translations : json</text><path d="M271.04,362.5279 L271.04,364.8612 L280.3733,364.8612 L280.3733,362.5279 L271.04,362.5279" fill="#000000"/><path d="M282.3733,362.5279 L282.3733,364.8612 L291.7067,364.8612 L291.7067,362.5279 L282.3733,362.5279" fill="#000000"/><path d="M293.7067,362.5279 L293.7067,364.8612 L303.04,364.8612 L303.04,362.5279 L293.7067,362.5279" fill="#000000"/><text fill="#000000" font-family="sans-serif" font-size="14" lengthAdjust="spacing" textLength="165.0059" x="308.4902" y="368.5595">updated_at : datetime6</text></g><!--class product--><g class="entity" data-qualified-name="product" data-source-line="101" id="ent0010"><rect fill="#F1F1F1" height="121.4844" rx="2.5" ry="2.5" style="stroke:#181818;stroke-width:0.5;" width="246.6484" x="653.77" y="246.23"/><ellipse cx="745.7671" cy="262.23" fill="#FFAAAA" rx="11" ry="11" style="stroke:#181818;stroke-width:1;"/><path d="M746.6108,268.98 L744.1577,268.98 L744.1577,258.73 L741.0171,258.73 L741.0171,256.5894 L749.7514,256.5894 L749.7514,258.73 L746.6108,258.73 L746.6108,268.98 Z " fill="#000000"/><text fill="#000000" font-family="sans-serif" font-size="14" lengthAdjust="spacing" textLength="54.1543" x="766.2671" y="267.0767">product</text><line style="stroke:#181818;stroke-width:0.5;" x1="654.77" x2="899.4184" y1="278.23" y2="278.23"/><path d="M667.1867,285.6935 C665.5767,285.6935 664.27,287.0002 664.27,288.6102 C664.27,288.7969 664.27,288.9835 664.305,289.1585 L660.77,292.6935 L660.77,295.0269 L664.27,295.0269 L664.27,292.6935 L666.6033,292.6935 L666.6033,291.5269 L666.6383,291.4919 C666.8133,291.5269 667,291.5269 667.1867,291.5269 C668.7967,291.5269 670.1033,290.2202 670.1033,288.6102 C670.1033,287.0002 668.7967,285.6935 667.1867,285.6935 M667.77,286.8602 C668.4117,286.8602 668.9367,287.3852 668.9367,288.0269 C668.9367,288.6685 668.4117,289.1935 667.77,289.1935 C667.1283,289.1935 666.6033,288.6685 666.6033,288.0269 C666.6033,287.3852 667.1283,286.8602 667.77,286.8602" fill="#FF0000"/><path d="M672.1033,289.1935 L672.1033,291.5269 L681.4367,291.5269 L681.4367,289.1935 L672.1033,289.1935" fill="#000000"/><path d="M683.4367,289.1935 L683.4367,291.5269 L692.77,291.5269 L692.77,289.1935 L683.4367,289.1935" fill="#000000"/><text fill="#000000" font-family="sans-serif" font-size="14" lengthAdjust="spacing" textLength="4.4502" x="693.77" y="295.2251">&#160;</text><text fill="#FF0000" font-family="sans-serif" font-size="14" lengthAdjust="spacing" text-decoration="underline" textLength="131.0996" x="698.2202" y="295.2251">id : int10 unsigned</text><path d="M660.77,305.4904 L660.77,307.8237 L670.1033,307.8237 L670.1033,305.4904 L660.77,305.4904" fill="#000000"/><path d="M672.1033,305.4904 L672.1033,307.8237 L681.4367,307.8237 L681.4367,305.4904 L672.1033,305.4904" fill="#000000"/><path d="M688.1033,301.9904 L688.1033,311.3237 L689.27,311.3237 L689.27,301.9904 L688.1033,301.9904 M685.77,303.1571 L685.77,310.1571 L686.9367,310.1571 L686.9367,303.1571 L685.77,303.1571 M690.4367,304.3237 L690.4367,308.9904 L691.6033,308.9904 L691.6033,304.3237 L690.4367,304.3237 M683.4367,305.4904 L683.4367,307.8237 L684.6033,307.8237 L684.6033,305.4904 L683.4367,305.4904" fill="#000000"/><text fill="#000000" font-family="sans-serif" font-size="14" lengthAdjust="spacing" textLength="135.3857" x="698.2202" y="311.522">customer_id : int11</text><path d="M660.77,321.7873 L660.77,324.1206 L670.1033,324.1206 L670.1033,321.7873 L660.77,321.7873" fill="#000000"/><path d="M672.1033,321.7873 L672.1033,324.1206 L681.4367,324.1206 L681.4367,321.7873 L672.1033,321.7873" fill="#000000"/><path d="M688.1033,318.2873 L688.1033,327.6206 L689.27,327.6206 L689.27,318.2873 L688.1033,318.2873 M685.77,319.454 L685.77,326.454 L686.9367,326.454 L686.9367,319.454 L685.77,319.454 M690.4367,320.6206 L690.4367,325.2873 L691.6033,325.2873 L691.6033,320.6206 L690.4367,320.6206 M683.4367,321.7873 L683.4367,324.1206 L684.6033,324.1206 L684.6033,321.7873 L683.4367,321.7873" fill="#000000"/><text fill="#000000" font-family="sans-serif" font-size="14" lengthAdjust="spacing" textLength="196.1982" x="698.2202" y="327.8189">external_id : int10 unsigned</text><path d="M660.77,338.0842 L660.77,340.4175 L670.1033,340.4175 L670.1033,338.0842 L660.77,338.0842" fill="#000000"/><path d="M672.1033,338.0842 L672.1033,340.4175 L681.4367,340.4175 L681.4367,338.0842 L672.1033,338.0842" fill="#000000"/><path d="M683.4367,338.0842 L683.4367,340.4175 L692.77,340.4175 L692.77,338.0842 L683.4367,338.0842" fill="#000000"/><text fill="#000000" font-family="sans-serif" font-size="14" lengthAdjust="spacing" textLength="160.4258" x="698.2202" y="344.1157">created_at : datetime6</text><path d="M660.77,354.381 L660.77,356.7144 L670.1033,356.7144 L670.1033,354.381 L660.77,354.381" fill="#000000"/><path d="M672.1033,354.381 L672.1033,356.7144 L681.4367,356.7144 L681.4367,354.381 L672.1033,354.381" fill="#000000"/><path d="M683.4367,354.381 L683.4367,356.7144 L692.77,356.7144 L692.77,354.381 L683.4367,354.381" fill="#000000"/><text fill="#000000" font-family="sans-serif" font-size="14" lengthAdjust="spacing" textLength="165.0059" x="698.2202" y="360.4126">updated_at : datetime6</text></g><!--class product_attribute--><g class="entity" data-qualified-name="product_attribute" data-source-line="110" id="ent0012"><rect fill="#F1F1F1" height="137.7813" rx="2.5" ry="2.5" style="stroke:#181818;stroke-width:0.5;" width="296.585" x="394.8" y="15.15"/><ellipse cx="477.7326" cy="31.15" fill="#FFAAAA" rx="11" ry="11" style="stroke:#181818;stroke-width:1;"/><path d="M478.5764,37.9 L476.1232,37.9 L476.1232,27.65 L472.9826,27.65 L472.9826,25.5094 L481.717,25.5094 L481.717,27.65 L478.5764,27.65 L478.5764,37.9 Z " fill="#000000"/><text fill="#000000" font-family="sans-serif" font-size="14" lengthAdjust="spacing" textLength="122.2197" x="498.2326" y="35.9967">product_attribute</text><line style="stroke:#181818;stroke-width:0.5;" x1="395.8" x2="690.385" y1="47.15" y2="47.15"/><path d="M408.2167,54.6135 C406.6067,54.6135 405.3,55.9202 405.3,57.5302 C405.3,57.7169 405.3,57.9035 405.335,58.0785 L401.8,61.6135 L401.8,63.9469 L405.3,63.9469 L405.3,61.6135 L407.6333,61.6135 L407.6333,60.4469 L407.6683,60.4119 C407.8433,60.4469 408.03,60.4469 408.2167,60.4469 C409.8267,60.4469 411.1333,59.1402 411.1333,57.5302 C411.1333,55.9202 409.8267,54.6135 408.2167,54.6135 M408.8,55.7802 C409.4417,55.7802 409.9667,56.3052 409.9667,56.9469 C409.9667,57.5885 409.4417,58.1135 408.8,58.1135 C408.1583,58.1135 407.6333,57.5885 407.6333,56.9469 C407.6333,56.3052 408.1583,55.7802 408.8,55.7802" fill="#FF0000"/><path d="M413.1333,58.1135 L413.1333,60.4469 L422.4667,60.4469 L422.4667,58.1135 L413.1333,58.1135" fill="#000000"/><path d="M424.4667,58.1135 L424.4667,60.4469 L433.8,60.4469 L433.8,58.1135 L424.4667,58.1135" fill="#000000"/><text fill="#000000" font-family="sans-serif" font-size="14" lengthAdjust="spacing" textLength="4.4502" x="434.8" y="64.1451">&#160;</text><text fill="#FF0000" font-family="sans-serif" font-size="14" lengthAdjust="spacing" text-decoration="underline" textLength="62.46" x="439.2502" y="64.1451">id : int11</text><path d="M401.8,74.4104 L401.8,76.7437 L411.1333,76.7437 L411.1333,74.4104 L401.8,74.4104" fill="#000000"/><path d="M413.1333,74.4104 L413.1333,76.7437 L422.4667,76.7437 L422.4667,74.4104 L413.1333,74.4104" fill="#000000"/><path d="M424.4667,74.4104 L424.4667,76.7437 L433.8,76.7437 L433.8,74.4104 L424.4667,74.4104" fill="#000000"/><text fill="#000000" font-family="sans-serif" font-size="14" lengthAdjust="spacing" textLength="199.165" x="439.2502" y="80.442">attribute_id : int10 unsigned</text><path d="M401.8,90.7073 L401.8,93.0406 L411.1333,93.0406 L411.1333,90.7073 L401.8,90.7073" fill="#000000"/><path d="M413.1333,90.7073 L413.1333,93.0406 L422.4667,93.0406 L422.4667,90.7073 L413.1333,90.7073" fill="#000000"/><path d="M424.4667,90.7073 L424.4667,93.0406 L433.8,93.0406 L433.8,90.7073 L424.4667,90.7073" fill="#000000"/><text fill="#000000" font-family="sans-serif" font-size="14" lengthAdjust="spacing" textLength="246.1348" x="439.2502" y="96.7389">training_course_id : int10 unsigned</text><path d="M401.8,107.0042 L401.8,109.3375 L411.1333,109.3375 L411.1333,107.0042 L401.8,107.0042" fill="#000000"/><path d="M413.1333,107.0042 L413.1333,109.3375 L422.4667,109.3375 L422.4667,107.0042 L413.1333,107.0042" fill="#000000"/><path d="M424.4667,107.0042 L424.4667,109.3375 L433.8,109.3375 L433.8,107.0042 L424.4667,107.0042" fill="#000000"/><text fill="#000000" font-family="sans-serif" font-size="14" lengthAdjust="spacing" textLength="160.4258" x="439.2502" y="113.0357">created_at : datetime6</text><path d="M401.8,123.301 L401.8,125.6344 L411.1333,125.6344 L411.1333,123.301 L401.8,123.301" fill="#000000"/><path d="M413.1333,123.301 L413.1333,125.6344 L422.4667,125.6344 L422.4667,123.301 L413.1333,123.301" fill="#000000"/><path d="M424.4667,123.301 L424.4667,125.6344 L433.8,125.6344 L433.8,123.301 L424.4667,123.301" fill="#000000"/><text fill="#000000" font-family="sans-serif" font-size="14" lengthAdjust="spacing" textLength="130.252" x="439.2502" y="129.3326">relevance : double</text><path d="M401.8,139.5979 L401.8,141.9313 L411.1333,141.9313 L411.1333,139.5979 L401.8,139.5979" fill="#000000"/><path d="M413.1333,139.5979 L413.1333,141.9313 L422.4667,141.9313 L422.4667,139.5979 L413.1333,139.5979" fill="#000000"/><path d="M424.4667,139.5979 L424.4667,141.9313 L433.8,141.9313 L433.8,139.5979 L424.4667,139.5979" fill="#000000"/><text fill="#000000" font-family="sans-serif" font-size="14" lengthAdjust="spacing" textLength="165.0059" x="439.2502" y="145.6295">updated_at : datetime6</text></g><!--link learner to customer--><g class="link" data-entity-1="ent0003" data-entity-2="ent0002" data-link-type="dependency" data-source-line="77" id="lnk4"><path codeLine="77" d="M218.59,367.99 C263.76,394.96 311.3988,423.4135 354.8488,449.3635" fill="none" id="learner-to-customer" style="stroke:#181818;stroke-width:1;"/><polygon fill="#181818" points="360,452.44,354.3242,444.3911,355.7073,449.8762,350.2222,451.2594,360,452.44" style="stroke:#181818;stroke-width:1;"/><text fill="#000000" font-family="sans-serif" font-size="13" lengthAdjust="spacing" textLength="11.8638" x="303.29" y="418.9269">id</text><text fill="#000000" font-family="sans-serif" font-size="13" lengthAdjust="spacing" textLength="23.0356" x="205.8821" y="387.9869">0..*</text><text fill="#000000" font-family="sans-serif" font-size="13" lengthAdjust="spacing" textLength="8.271" x="340.3454" y="441.7621">1</text></g><!--link learner_attribute to attribute--><g class="link" data-entity-1="ent0005" data-entity-2="ent0006" data-link-type="dependency" data-source-line="88" id="lnk7"><path codeLine="88" d="M291.51,161.38 C313.76,186.2 334.2755,209.1019 355.9555,233.2919" fill="none" id="learner_attribute-to-attribute" style="stroke:#181818;stroke-width:1;"/><polygon fill="#181818" points="359.96,237.76,356.932,228.3882,356.6229,234.0366,350.9745,233.7275,359.96,237.76" style="stroke:#181818;stroke-width:1;"/><text fill="#000000" font-family="sans-serif" font-size="13" lengthAdjust="spacing" textLength="11.8638" x="329.03" y="204.1469">id</text><text fill="#000000" font-family="sans-serif" font-size="13" lengthAdjust="spacing" textLength="23.0356" x="273.7583" y="181.2743">0..*</text><text fill="#000000" font-family="sans-serif" font-size="13" lengthAdjust="spacing" textLength="8.271" x="345.2572" y="226.923">1</text></g><!--link learner_attribute to learner--><g class="link" data-entity-1="ent0005" data-entity-2="ent0003" data-link-type="dependency" data-source-line="89" id="lnk8"><path codeLine="89" d="M186.81,161.38 C173.65,189.07 161.5664,214.5113 149.1664,240.5913" fill="none" id="learner_attribute-to-learner" style="stroke:#181818;stroke-width:1;"/><polygon fill="#181818" points="146.59,246.01,154.067,239.5995,148.737,241.4944,146.8421,236.1644,146.59,246.01" style="stroke:#181818;stroke-width:1;"/><text fill="#000000" font-family="sans-serif" font-size="13" lengthAdjust="spacing" textLength="11.8638" x="171.59" y="204.1469">id</text><text fill="#000000" font-family="sans-serif" font-size="13" lengthAdjust="spacing" textLength="23.0356" x="159.4062" y="181.2743">0..*</text><text fill="#000000" font-family="sans-serif" font-size="13" lengthAdjust="spacing" textLength="8.271" x="141.4379" y="235.1686">1</text></g><!--link attribute to attribute--><g class="link" data-entity-1="ent0006" data-entity-2="ent0006" data-link-type="dependency" data-source-line="99" id="lnk9"><path codeLine="99" d="M578.58,289.22 C599.36,292.24 613.15,298.16 613.15,306.97 C613.15,315.78 605.2972,320.8343 584.5172,323.8643" fill="none" id="attribute-to-attribute" style="stroke:#181818;stroke-width:1;"/><polygon fill="#181818" points="578.58,324.73,588.063,327.3896,583.5277,324.0086,586.9087,319.4733,578.58,324.73" style="stroke:#181818;stroke-width:1;"/><text fill="#000000" font-family="sans-serif" font-size="13" lengthAdjust="spacing" textLength="11.8638" x="619.15" y="311.5369">id</text><text fill="#000000" font-family="sans-serif" font-size="13" lengthAdjust="spacing" textLength="23.0356" x="586.238" y="285.1457">0..*</text><text fill="#000000" font-family="sans-serif" font-size="13" lengthAdjust="spacing" textLength="8.271" x="585.9035" y="322.2648">1</text></g><!--link product to customer--><g class="link" data-entity-1="ent0010" data-entity-2="ent0002" data-link-type="dependency" data-source-line="108" id="lnk11"><path codeLine="108" d="M676.29,367.99 C630.99,394.96 583.1956,423.4208 539.6056,449.3708" fill="none" id="product-to-customer" style="stroke:#181818;stroke-width:1;"/><polygon fill="#181818" points="534.45,452.44,544.2295,451.2732,538.7463,449.8823,540.1372,444.3991,534.45,452.44" style="stroke:#181818;stroke-width:1;"/><text fill="#000000" font-family="sans-serif" font-size="13" lengthAdjust="spacing" textLength="11.8638" x="613.09" y="418.9269">id</text><text fill="#000000" font-family="sans-serif" font-size="13" lengthAdjust="spacing" textLength="23.0356" x="640.3069" y="387.9869">0..*</text><text fill="#000000" font-family="sans-serif" font-size="13" lengthAdjust="spacing" textLength="8.271" x="537.1468" y="441.7621">1</text></g><!--link product_attribute to attribute--><g class="link" data-entity-1="ent0012" data-entity-2="ent0006" data-link-type="dependency" data-source-line="118" id="lnk13"><path codeLine="118" d="M505.33,153.43 C490.49,180.3 476.4011,205.818 461.5811,232.648" fill="none" id="product_attribute-to-attribute" style="stroke:#181818;stroke-width:1;"/><polygon fill="#181818" points="458.68,237.9,466.5329,231.956,461.0975,233.5233,459.5302,228.0879,458.68,237.9" style="stroke:#181818;stroke-width:1;"/><text fill="#000000" font-family="sans-serif" font-size="13" lengthAdjust="spacing" textLength="11.8638" x="483.09" y="204.1469">id</text><text fill="#000000" font-family="sans-serif" font-size="13" lengthAdjust="spacing" textLength="23.0356" x="477.4825" y="173.0722">0..*</text><text fill="#000000" font-family="sans-serif" font-size="13" lengthAdjust="spacing" textLength="8.271" x="454.1577" y="227.0774">1</text></g><!--link product_attribute to product--><g class="link" data-entity-1="ent0012" data-entity-2="ent0010" data-link-type="dependency" data-source-line="119" id="lnk14"><path codeLine="119" d="M615.53,153.43 C646.81,182.96 678.7072,213.081 708.9572,241.641" fill="none" id="product_attribute-to-product" style="stroke:#181818;stroke-width:1;"/><polygon fill="#181818" points="713.32,245.76,709.5219,236.673,709.6844,242.3275,704.0298,242.49,713.32,245.76" style="stroke:#181818;stroke-width:1;"/><text fill="#000000" font-family="sans-serif" font-size="13" lengthAdjust="spacing" textLength="11.8638" x="668.11" y="204.1469">id</text><text fill="#000000" font-family="sans-serif" font-size="13" lengthAdjust="spacing" textLength="23.0356" x="598.5303" y="173.0722">0..*</text><text fill="#000000" font-family="sans-serif" font-size="13" lengthAdjust="spacing" textLength="8.271" x="697.922" y="235.3188">1</text></g><?plantuml-src pLTjJniv4FwUNp5i4IHj8A6ddgeeHAguGwhWe7U5pv6pdYG-lFQUN-2ugl_znbulIQ1vA-eTI8kzwvd7usUU6Ilxu5MkYmAL0pT5a48XZ53gEn1ZkDT-to1uAzG4oApq3WtS2JS51WQTK0ouiALazurzi3T2bSom0dWfuATkjx4p9dGdj88hDfBOt5Mim5O3O8USlL6GvP9P2ncyWRX6OmRzFZIlsgzEJp_GNmi6WwonWuhNMBJJNOY9ujIImrWRA8qecBc76mnnJ0oYed0bhOHLhyHV7cc1AKul78tDDHqhh2djXifBEHSgEVf2LR6sOTVTbs48HiTPHhFofXh7QQpWQHuFjYiPqGV7a6KDUj-7Nof-OcoqJgms2GAEoUBJMGPxUm49TkZrz2n2B83qup5w1lcWlqSGWtudVY5Eo0wbnIM0nwi1HzBZIiJr497cPHXFVFOAeRnD1egByI8xWTuW4H0vPRZcANoDOLnSdvy_2IHDtWJq4LDBDv-tMnr5bSh56DAt4CNrnSVVhtzT6GVpNEW3MsBkZ2-U4L8gAwWCXOhLQSHawfAocv_Esd1ApqYxQPk4h71HWBCz88BlLiB-JB65rOTowrNb5tI-lK3d3k87SsADa7CR1eEaaNx7VwzwlxLRLF9Msss7NybyqmsM0SxvBYIwReILuUC-HvcbVklOn0AxPI9MI8--zmNjAWPXDcBvJU_aylpoZuSYRCCTkM7IYI3VD8qfft7g2fa-vPg7pjYCtVRaf1NQE6AFJ5pPwtH8WihvGXvIy-_4NetsCBY_-eqwQ6CgE4A1RggvhLuiNH2eWvPiOtOVHCyFpXaneXla8vNNP_4FGhT1sz7D8vmWyxbfTLlatZfTe6d15s8gjULCS6gwcL3kw2XCBYwl87Q7TXGG_OzFQy4Z08y5ch1qoqm-PURexVl7xlKpL-OrH6wGEUH3ve81fxaJ1Vwy3671rvTyIz-lZSI0H6RKSWAwrB2ic2Za6p9HCpfSGU8A5l1logvYChad9j--U_U2cKmKGjOzF7oTmS710BAZ36ecGlUZqpmYd7P8MdskzXw0XfkaxPiGTKpV3V0SocaxAcXRUMfF76qOyotABNsUaTrPlXxdURQG4htMenRCeZ3M2cBhMYnOMSRJhXN8slpCId8cpHzRYSumPIKBrvGDYtzQhNvOaZTFRafMQJJtkNkXRNEp2du1hJFHk67hJDOlgdMIJ8MYtwx3N7jZyVzfeGQf6pALut_G3vyaOMt9hFMeLP3i_mK0?></g></svg>
