<?xml version="1.0" encoding="us-ascii" standalone="no"?><svg xmlns="http://www.w3.org/2000/svg" xmlns:xlink="http://www.w3.org/1999/xlink" contentStyleType="text/css" height="565px" preserveAspectRatio="none" style="width:888px;height:565px;background:#FFFFFF;" version="1.1" viewBox="0 0 888 565" width="888px" zoomAndPan="magnify"><defs/><g><!--class customer--><g id="elem_customer"><rect codeLine="63" fill="#F1F1F1" height="105.1875" id="customer" rx="2.5" ry="2.5" style="stroke:#181818;stroke-width:0.5;" width="211" x="331.5" y="453"/><ellipse cx="399.75" cy="469" fill="#FFAAAA" rx="11" ry="11" style="stroke:#181818;stroke-width:1.0;"/><path d="M400.5938,475.75 L398.1406,475.75 L398.1406,465.5 L395,465.5 L395,463.3594 L403.7344,463.3594 L403.7344,465.5 L400.5938,465.5 L400.5938,475.75 Z " fill="#000000"/><text fill="#000000" font-family="sans-serif" font-size="14" lengthAdjust="spacing" textLength="66" x="420.25" y="473.8467">customer</text><line style="stroke:#181818;stroke-width:0.5;" x1="332.5" x2="541.5" y1="485" y2="485"/><path d="M344.9167,492.4635 C343.3067,492.4635 342,493.7702 342,495.3802 C342,495.5669 342,495.7535 342.035,495.9285 L338.5,499.4635 L338.5,501.7969 L342,501.7969 L342,499.4635 L344.3333,499.4635 L344.3333,498.2969 L344.3683,498.2619 C344.5433,498.2969 344.73,498.2969 344.9167,498.2969 C346.5267,498.2969 347.8333,496.9902 347.8333,495.3802 C347.8333,493.7702 346.5267,492.4635 344.9167,492.4635 M345.5,493.6302 C346.1417,493.6302 346.6667,494.1552 346.6667,494.7969 C346.6667,495.4385 346.1417,495.9635 345.5,495.9635 C344.8583,495.9635 344.3333,495.4385 344.3333,494.7969 C344.3333,494.1552 344.8583,493.6302 345.5,493.6302 " fill="#FF0000" style="stroke:;stroke-width:0.0;stroke-dasharray:;"/><path d="M349.8333,492.4635 L349.8333,494.7969 L359.1667,494.7969 L359.1667,492.4635 L349.8333,492.4635 " fill="#000000" style="stroke:;stroke-width:0.0;stroke-dasharray:;"/><path d="M361.1667,492.4635 L361.1667,494.7969 L370.5,494.7969 L370.5,492.4635 L361.1667,492.4635 " fill="#000000" style="stroke:;stroke-width:0.0;stroke-dasharray:;"/><text fill="#000000" font-family="sans-serif" font-size="14" lengthAdjust="spacing" textLength="4" x="371.5" y="501.9951">&#160;</text><text fill="#FF0000" font-family="sans-serif" font-size="14" lengthAdjust="spacing" text-decoration="underline" textLength="60" x="375.5" y="501.9951">id : int11</text><path d="M338.5,508.7604 L338.5,511.0938 L347.8333,511.0938 L347.8333,508.7604 L338.5,508.7604 " fill="#000000" style="stroke:;stroke-width:0.0;stroke-dasharray:;"/><path d="M349.8333,508.7604 L349.8333,511.0938 L359.1667,511.0938 L359.1667,508.7604 L349.8333,508.7604 " fill="#000000" style="stroke:;stroke-width:0.0;stroke-dasharray:;"/><path d="M365.8333,508.7604 L365.8333,518.0938 L367,518.0938 L367,508.7604 L365.8333,508.7604 M363.5,509.9271 L363.5,516.9271 L364.6667,516.9271 L364.6667,509.9271 L363.5,509.9271 M368.1667,511.0938 L368.1667,515.7604 L369.3333,515.7604 L369.3333,511.0938 L368.1667,511.0938 M361.1667,512.2604 L361.1667,514.5938 L362.3333,514.5938 L362.3333,512.2604 L361.1667,512.2604 " fill="#000000" style="stroke:;stroke-width:0.0;stroke-dasharray:;"/><text fill="#000000" font-family="sans-serif" font-size="14" lengthAdjust="spacing" textLength="149" x="375.5" y="518.292">identifier : varchar128</text><path d="M338.5,525.0573 L338.5,527.3906 L347.8333,527.3906 L347.8333,525.0573 L338.5,525.0573 " fill="#000000" style="stroke:;stroke-width:0.0;stroke-dasharray:;"/><path d="M349.8333,525.0573 L349.8333,527.3906 L359.1667,527.3906 L359.1667,525.0573 L349.8333,525.0573 " fill="#000000" style="stroke:;stroke-width:0.0;stroke-dasharray:;"/><path d="M361.1667,525.0573 L361.1667,527.3906 L370.5,527.3906 L370.5,525.0573 L361.1667,525.0573 " fill="#000000" style="stroke:;stroke-width:0.0;stroke-dasharray:;"/><text fill="#000000" font-family="sans-serif" font-size="14" lengthAdjust="spacing" textLength="156" x="375.5" y="534.5889">created_at : datetime6</text><path d="M338.5,541.3542 L338.5,543.6875 L347.8333,543.6875 L347.8333,541.3542 L338.5,541.3542 " fill="#000000" style="stroke:;stroke-width:0.0;stroke-dasharray:;"/><path d="M349.8333,541.3542 L349.8333,543.6875 L359.1667,543.6875 L359.1667,541.3542 L349.8333,541.3542 " fill="#000000" style="stroke:;stroke-width:0.0;stroke-dasharray:;"/><path d="M361.1667,541.3542 L361.1667,543.6875 L370.5,543.6875 L370.5,541.3542 L361.1667,541.3542 " fill="#000000" style="stroke:;stroke-width:0.0;stroke-dasharray:;"/><text fill="#000000" font-family="sans-serif" font-size="14" lengthAdjust="spacing" textLength="161" x="375.5" y="550.8857">updated_at : datetime6</text></g><!--class learner--><g id="elem_learner"><rect codeLine="70" fill="#F1F1F1" height="121.4844" id="learner" rx="2.5" ry="2.5" style="stroke:#181818;stroke-width:0.5;" width="214" x="7" y="246.5"/><ellipse cx="85.75" cy="262.5" fill="#FFAAAA" rx="11" ry="11" style="stroke:#181818;stroke-width:1.0;"/><path d="M86.5938,269.25 L84.1406,269.25 L84.1406,259 L81,259 L81,256.8594 L89.7344,256.8594 L89.7344,259 L86.5938,259 L86.5938,269.25 Z " fill="#000000"/><text fill="#000000" font-family="sans-serif" font-size="14" lengthAdjust="spacing" textLength="48" x="106.25" y="267.3467">learner</text><line style="stroke:#181818;stroke-width:0.5;" x1="8" x2="220" y1="278.5" y2="278.5"/><path d="M20.4167,285.9635 C18.8067,285.9635 17.5,287.2702 17.5,288.8802 C17.5,289.0669 17.5,289.2535 17.535,289.4285 L14,292.9635 L14,295.2969 L17.5,295.2969 L17.5,292.9635 L19.8333,292.9635 L19.8333,291.7969 L19.8683,291.7619 C20.0433,291.7969 20.23,291.7969 20.4167,291.7969 C22.0267,291.7969 23.3333,290.4902 23.3333,288.8802 C23.3333,287.2702 22.0267,285.9635 20.4167,285.9635 M21,287.1302 C21.6417,287.1302 22.1667,287.6552 22.1667,288.2969 C22.1667,288.9385 21.6417,289.4635 21,289.4635 C20.3583,289.4635 19.8333,288.9385 19.8333,288.2969 C19.8333,287.6552 20.3583,287.1302 21,287.1302 " fill="#FF0000" style="stroke:;stroke-width:0.0;stroke-dasharray:;"/><path d="M25.3333,285.9635 L25.3333,288.2969 L34.6667,288.2969 L34.6667,285.9635 L25.3333,285.9635 " fill="#000000" style="stroke:;stroke-width:0.0;stroke-dasharray:;"/><path d="M36.6667,285.9635 L36.6667,288.2969 L46,288.2969 L46,285.9635 L36.6667,285.9635 " fill="#000000" style="stroke:;stroke-width:0.0;stroke-dasharray:;"/><text fill="#000000" font-family="sans-serif" font-size="14" lengthAdjust="spacing" textLength="4" x="47" y="295.4951">&#160;</text><text fill="#FF0000" font-family="sans-serif" font-size="14" lengthAdjust="spacing" text-decoration="underline" textLength="129" x="51" y="295.4951">id : int10 unsigned</text><path d="M14,302.2604 L14,304.5938 L23.3333,304.5938 L23.3333,302.2604 L14,302.2604 " fill="#000000" style="stroke:;stroke-width:0.0;stroke-dasharray:;"/><path d="M25.3333,302.2604 L25.3333,304.5938 L34.6667,304.5938 L34.6667,302.2604 L25.3333,302.2604 " fill="#000000" style="stroke:;stroke-width:0.0;stroke-dasharray:;"/><path d="M41.3333,302.2604 L41.3333,311.5938 L42.5,311.5938 L42.5,302.2604 L41.3333,302.2604 M39,303.4271 L39,310.4271 L40.1667,310.4271 L40.1667,303.4271 L39,303.4271 M43.6667,304.5938 L43.6667,309.2604 L44.8333,309.2604 L44.8333,304.5938 L43.6667,304.5938 M36.6667,305.7604 L36.6667,308.0938 L37.8333,308.0938 L37.8333,305.7604 L36.6667,305.7604 " fill="#000000" style="stroke:;stroke-width:0.0;stroke-dasharray:;"/><text fill="#000000" font-family="sans-serif" font-size="14" lengthAdjust="spacing" textLength="133" x="51" y="311.792">customer_id : int11</text><path d="M14,318.5573 L14,320.8906 L23.3333,320.8906 L23.3333,318.5573 L14,318.5573 " fill="#000000" style="stroke:;stroke-width:0.0;stroke-dasharray:;"/><path d="M25.3333,318.5573 L25.3333,320.8906 L34.6667,320.8906 L34.6667,318.5573 L25.3333,318.5573 " fill="#000000" style="stroke:;stroke-width:0.0;stroke-dasharray:;"/><path d="M41.3333,318.5573 L41.3333,327.8906 L42.5,327.8906 L42.5,318.5573 L41.3333,318.5573 M39,319.724 L39,326.724 L40.1667,326.724 L40.1667,319.724 L39,319.724 M43.6667,320.8906 L43.6667,325.5573 L44.8333,325.5573 L44.8333,320.8906 L43.6667,320.8906 M36.6667,322.0573 L36.6667,324.3906 L37.8333,324.3906 L37.8333,322.0573 L36.6667,322.0573 " fill="#000000" style="stroke:;stroke-width:0.0;stroke-dasharray:;"/><text fill="#000000" font-family="sans-serif" font-size="14" lengthAdjust="spacing" textLength="164" x="51" y="328.0889">external_id : varchar255</text><path d="M14,334.8542 L14,337.1875 L23.3333,337.1875 L23.3333,334.8542 L14,334.8542 " fill="#000000" style="stroke:;stroke-width:0.0;stroke-dasharray:;"/><path d="M25.3333,334.8542 L25.3333,337.1875 L34.6667,337.1875 L34.6667,334.8542 L25.3333,334.8542 " fill="#000000" style="stroke:;stroke-width:0.0;stroke-dasharray:;"/><path d="M36.6667,334.8542 L36.6667,337.1875 L46,337.1875 L46,334.8542 L36.6667,334.8542 " fill="#000000" style="stroke:;stroke-width:0.0;stroke-dasharray:;"/><text fill="#000000" font-family="sans-serif" font-size="14" lengthAdjust="spacing" textLength="156" x="51" y="344.3857">created_at : datetime6</text><path d="M14,351.151 L14,353.4844 L23.3333,353.4844 L23.3333,351.151 L14,351.151 " fill="#000000" style="stroke:;stroke-width:0.0;stroke-dasharray:;"/><path d="M25.3333,351.151 L25.3333,353.4844 L34.6667,353.4844 L34.6667,351.151 L25.3333,351.151 " fill="#000000" style="stroke:;stroke-width:0.0;stroke-dasharray:;"/><path d="M36.6667,351.151 L36.6667,353.4844 L46,353.4844 L46,351.151 L36.6667,351.151 " fill="#000000" style="stroke:;stroke-width:0.0;stroke-dasharray:;"/><text fill="#000000" font-family="sans-serif" font-size="14" lengthAdjust="spacing" textLength="161" x="51" y="360.6826">updated_at : datetime6</text></g><!--class learner_attribute--><g id="elem_learner_attribute"><rect codeLine="79" fill="#F1F1F1" height="154.0781" id="learner_attribute" rx="2.5" ry="2.5" style="stroke:#181818;stroke-width:0.5;" width="244" x="94" y="7"/><ellipse cx="155.25" cy="23" fill="#FFAAAA" rx="11" ry="11" style="stroke:#181818;stroke-width:1.0;"/><path d="M156.0938,29.75 L153.6406,29.75 L153.6406,19.5 L150.5,19.5 L150.5,17.3594 L159.2344,17.3594 L159.2344,19.5 L156.0938,19.5 L156.0938,29.75 Z " fill="#000000"/><text fill="#000000" font-family="sans-serif" font-size="14" lengthAdjust="spacing" textLength="113" x="175.75" y="27.8467">learner_attribute</text><line style="stroke:#181818;stroke-width:0.5;" x1="95" x2="337" y1="39" y2="39"/><path d="M107.4167,46.4635 C105.8067,46.4635 104.5,47.7702 104.5,49.3802 C104.5,49.5669 104.5,49.7535 104.535,49.9285 L101,53.4635 L101,55.7969 L104.5,55.7969 L104.5,53.4635 L106.8333,53.4635 L106.8333,52.2969 L106.8683,52.2619 C107.0433,52.2969 107.23,52.2969 107.4167,52.2969 C109.0267,52.2969 110.3333,50.9902 110.3333,49.3802 C110.3333,47.7702 109.0267,46.4635 107.4167,46.4635 M108,47.6302 C108.6417,47.6302 109.1667,48.1552 109.1667,48.7969 C109.1667,49.4385 108.6417,49.9635 108,49.9635 C107.3583,49.9635 106.8333,49.4385 106.8333,48.7969 C106.8333,48.1552 107.3583,47.6302 108,47.6302 " fill="#FF0000" style="stroke:;stroke-width:0.0;stroke-dasharray:;"/><path d="M112.3333,46.4635 L112.3333,48.7969 L121.6667,48.7969 L121.6667,46.4635 L112.3333,46.4635 " fill="#000000" style="stroke:;stroke-width:0.0;stroke-dasharray:;"/><path d="M123.6667,46.4635 L123.6667,48.7969 L133,48.7969 L133,46.4635 L123.6667,46.4635 " fill="#000000" style="stroke:;stroke-width:0.0;stroke-dasharray:;"/><text fill="#000000" font-family="sans-serif" font-size="14" lengthAdjust="spacing" textLength="4" x="134" y="55.9951">&#160;</text><text fill="#FF0000" font-family="sans-serif" font-size="14" lengthAdjust="spacing" text-decoration="underline" textLength="60" x="138" y="55.9951">id : int11</text><path d="M101,62.7604 L101,65.0938 L110.3333,65.0938 L110.3333,62.7604 L101,62.7604 " fill="#000000" style="stroke:;stroke-width:0.0;stroke-dasharray:;"/><path d="M112.3333,62.7604 L112.3333,65.0938 L121.6667,65.0938 L121.6667,62.7604 L112.3333,62.7604 " fill="#000000" style="stroke:;stroke-width:0.0;stroke-dasharray:;"/><path d="M123.6667,62.7604 L123.6667,65.0938 L133,65.0938 L133,62.7604 L123.6667,62.7604 " fill="#000000" style="stroke:;stroke-width:0.0;stroke-dasharray:;"/><text fill="#000000" font-family="sans-serif" font-size="14" lengthAdjust="spacing" textLength="194" x="138" y="72.292">attribute_id : int10 unsigned</text><path d="M101,79.0573 L101,81.3906 L110.3333,81.3906 L110.3333,79.0573 L101,79.0573 " fill="#000000" style="stroke:;stroke-width:0.0;stroke-dasharray:;"/><path d="M112.3333,79.0573 L112.3333,81.3906 L121.6667,81.3906 L121.6667,79.0573 L112.3333,79.0573 " fill="#000000" style="stroke:;stroke-width:0.0;stroke-dasharray:;"/><path d="M123.6667,79.0573 L123.6667,81.3906 L133,81.3906 L133,79.0573 L123.6667,79.0573 " fill="#000000" style="stroke:;stroke-width:0.0;stroke-dasharray:;"/><text fill="#000000" font-family="sans-serif" font-size="14" lengthAdjust="spacing" textLength="184" x="138" y="88.5889">learner_id : int10 unsigned</text><path d="M101,95.3542 L101,97.6875 L110.3333,97.6875 L110.3333,95.3542 L101,95.3542 " fill="#000000" style="stroke:;stroke-width:0.0;stroke-dasharray:;"/><path d="M112.3333,95.3542 L112.3333,97.6875 L121.6667,97.6875 L121.6667,95.3542 L112.3333,95.3542 " fill="#000000" style="stroke:;stroke-width:0.0;stroke-dasharray:;"/><path d="M123.6667,95.3542 L123.6667,97.6875 L133,97.6875 L133,95.3542 L123.6667,95.3542 " fill="#000000" style="stroke:;stroke-width:0.0;stroke-dasharray:;"/><text fill="#000000" font-family="sans-serif" font-size="14" lengthAdjust="spacing" textLength="156" x="138" y="104.8857">created_at : datetime6</text><path d="M101,111.651 L101,113.9844 L110.3333,113.9844 L110.3333,111.651 L101,111.651 " fill="#000000" style="stroke:;stroke-width:0.0;stroke-dasharray:;"/><path d="M112.3333,111.651 L112.3333,113.9844 L121.6667,113.9844 L121.6667,111.651 L112.3333,111.651 " fill="#000000" style="stroke:;stroke-width:0.0;stroke-dasharray:;"/><path d="M123.6667,111.651 L123.6667,113.9844 L133,113.9844 L133,111.651 L123.6667,111.651 " fill="#000000" style="stroke:;stroke-width:0.0;stroke-dasharray:;"/><text fill="#000000" font-family="sans-serif" font-size="14" lengthAdjust="spacing" textLength="114" x="138" y="121.1826">interest : double</text><path d="M101,127.9479 L101,130.2813 L110.3333,130.2813 L110.3333,127.9479 L101,127.9479 " fill="#000000" style="stroke:;stroke-width:0.0;stroke-dasharray:;"/><path d="M112.3333,127.9479 L112.3333,130.2813 L121.6667,130.2813 L121.6667,127.9479 L112.3333,127.9479 " fill="#000000" style="stroke:;stroke-width:0.0;stroke-dasharray:;"/><path d="M123.6667,127.9479 L123.6667,130.2813 L133,130.2813 L133,127.9479 L123.6667,127.9479 " fill="#000000" style="stroke:;stroke-width:0.0;stroke-dasharray:;"/><text fill="#000000" font-family="sans-serif" font-size="14" lengthAdjust="spacing" textLength="92" x="138" y="137.4795">level : double</text><path d="M101,144.2448 L101,146.5781 L110.3333,146.5781 L110.3333,144.2448 L101,144.2448 " fill="#000000" style="stroke:;stroke-width:0.0;stroke-dasharray:;"/><path d="M112.3333,144.2448 L112.3333,146.5781 L121.6667,146.5781 L121.6667,144.2448 L112.3333,144.2448 " fill="#000000" style="stroke:;stroke-width:0.0;stroke-dasharray:;"/><path d="M123.6667,144.2448 L123.6667,146.5781 L133,146.5781 L133,144.2448 L123.6667,144.2448 " fill="#000000" style="stroke:;stroke-width:0.0;stroke-dasharray:;"/><text fill="#000000" font-family="sans-serif" font-size="14" lengthAdjust="spacing" textLength="161" x="138" y="153.7764">updated_at : datetime6</text></g><!--class attribute--><g id="elem_attribute"><rect codeLine="91" fill="#F1F1F1" height="137.7813" id="attribute" rx="2.5" ry="2.5" style="stroke:#181818;stroke-width:0.5;" width="308" x="256" y="238"/><ellipse cx="376.75" cy="254" fill="#FFAAAA" rx="11" ry="11" style="stroke:#181818;stroke-width:1.0;"/><path d="M377.5938,260.75 L375.1406,260.75 L375.1406,250.5 L372,250.5 L372,248.3594 L380.7344,248.3594 L380.7344,250.5 L377.5938,250.5 L377.5938,260.75 Z " fill="#000000"/><text fill="#000000" font-family="sans-serif" font-size="14" lengthAdjust="spacing" textLength="58" x="397.25" y="258.8467">attribute</text><line style="stroke:#181818;stroke-width:0.5;" x1="257" x2="563" y1="270" y2="270"/><path d="M269.4167,277.4635 C267.8067,277.4635 266.5,278.7702 266.5,280.3802 C266.5,280.5669 266.5,280.7535 266.535,280.9285 L263,284.4635 L263,286.7969 L266.5,286.7969 L266.5,284.4635 L268.8333,284.4635 L268.8333,283.2969 L268.8683,283.2619 C269.0433,283.2969 269.23,283.2969 269.4167,283.2969 C271.0267,283.2969 272.3333,281.9902 272.3333,280.3802 C272.3333,278.7702 271.0267,277.4635 269.4167,277.4635 M270,278.6302 C270.6417,278.6302 271.1667,279.1552 271.1667,279.7969 C271.1667,280.4385 270.6417,280.9635 270,280.9635 C269.3583,280.9635 268.8333,280.4385 268.8333,279.7969 C268.8333,279.1552 269.3583,278.6302 270,278.6302 " fill="#FF0000" style="stroke:;stroke-width:0.0;stroke-dasharray:;"/><path d="M274.3333,277.4635 L274.3333,279.7969 L283.6667,279.7969 L283.6667,277.4635 L274.3333,277.4635 " fill="#000000" style="stroke:;stroke-width:0.0;stroke-dasharray:;"/><path d="M285.6667,277.4635 L285.6667,279.7969 L295,279.7969 L295,277.4635 L285.6667,277.4635 " fill="#000000" style="stroke:;stroke-width:0.0;stroke-dasharray:;"/><text fill="#000000" font-family="sans-serif" font-size="14" lengthAdjust="spacing" textLength="4" x="296" y="286.9951">&#160;</text><text fill="#FF0000" font-family="sans-serif" font-size="14" lengthAdjust="spacing" text-decoration="underline" textLength="129" x="300" y="286.9951">id : int10 unsigned</text><path d="M263,293.7604 L263,296.0938 L272.3333,296.0938 L272.3333,293.7604 L263,293.7604 " fill="#000000" style="stroke:;stroke-width:0.0;stroke-dasharray:;"/><path d="M279,293.7604 C276.4333,293.7604 274.3333,295.8604 274.3333,298.4271 C274.3333,300.9938 276.4333,303.0938 279,303.0938 C281.5667,303.0938 283.6667,300.9938 283.6667,298.4271 C283.6667,295.8604 281.5667,293.7604 279,293.7604 M279,294.9271 C279.77,294.9271 280.47,295.1721 281.0417,295.5804 L276.1533,300.4688 C275.745,299.8971 275.5,299.1971 275.5,298.4271 C275.5,296.4904 277.0633,294.9271 279,294.9271 M281.8467,296.3854 C282.255,296.9571 282.5,297.6571 282.5,298.4271 C282.5,300.3638 280.9367,301.9271 279,301.9271 C278.23,301.9271 277.53,301.6821 276.9583,301.2738 L281.8467,296.3854 " fill="#000000" style="stroke:;stroke-width:0.0;stroke-dasharray:;"/><path d="M285.6667,293.7604 L285.6667,296.0938 L295,296.0938 L295,293.7604 L285.6667,293.7604 " fill="#000000" style="stroke:;stroke-width:0.0;stroke-dasharray:;"/><text fill="#000000" font-family="sans-serif" font-size="14" lengthAdjust="spacing" textLength="258" x="300" y="303.292">mapped_attribute_id : int10 unsigned</text><path d="M263,310.0573 L263,312.3906 L272.3333,312.3906 L272.3333,310.0573 L263,310.0573 " fill="#000000" style="stroke:;stroke-width:0.0;stroke-dasharray:;"/><path d="M279,310.0573 C276.4333,310.0573 274.3333,312.1573 274.3333,314.724 C274.3333,317.2906 276.4333,319.3906 279,319.3906 C281.5667,319.3906 283.6667,317.2906 283.6667,314.724 C283.6667,312.1573 281.5667,310.0573 279,310.0573 M279,311.224 C279.77,311.224 280.47,311.469 281.0417,311.8773 L276.1533,316.7656 C275.745,316.194 275.5,315.494 275.5,314.724 C275.5,312.7873 277.0633,311.224 279,311.224 M281.8467,312.6823 C282.255,313.254 282.5,313.954 282.5,314.724 C282.5,316.6606 280.9367,318.224 279,318.224 C278.23,318.224 277.53,317.979 276.9583,317.5706 L281.8467,312.6823 " fill="#000000" style="stroke:;stroke-width:0.0;stroke-dasharray:;"/><path d="M290.3333,310.0573 L290.3333,319.3906 L291.5,319.3906 L291.5,310.0573 L290.3333,310.0573 M288,311.224 L288,318.224 L289.1667,318.224 L289.1667,311.224 L288,311.224 M292.6667,312.3906 L292.6667,317.0573 L293.8333,317.0573 L293.8333,312.3906 L292.6667,312.3906 M285.6667,313.5573 L285.6667,315.8906 L286.8333,315.8906 L286.8333,313.5573 L285.6667,313.5573 " fill="#000000" style="stroke:;stroke-width:0.0;stroke-dasharray:;"/><text fill="#000000" font-family="sans-serif" font-size="14" lengthAdjust="spacing" textLength="118" x="300" y="319.5889">internal_id : int11</text><path d="M263,326.3542 L263,328.6875 L272.3333,328.6875 L272.3333,326.3542 L263,326.3542 " fill="#000000" style="stroke:;stroke-width:0.0;stroke-dasharray:;"/><path d="M274.3333,326.3542 L274.3333,328.6875 L283.6667,328.6875 L283.6667,326.3542 L274.3333,326.3542 " fill="#000000" style="stroke:;stroke-width:0.0;stroke-dasharray:;"/><path d="M285.6667,326.3542 L285.6667,328.6875 L295,328.6875 L295,326.3542 L285.6667,326.3542 " fill="#000000" style="stroke:;stroke-width:0.0;stroke-dasharray:;"/><text fill="#000000" font-family="sans-serif" font-size="14" lengthAdjust="spacing" textLength="156" x="300" y="335.8857">created_at : datetime6</text><path d="M263,342.651 L263,344.9844 L272.3333,344.9844 L272.3333,342.651 L263,342.651 " fill="#000000" style="stroke:;stroke-width:0.0;stroke-dasharray:;"/><path d="M274.3333,342.651 L274.3333,344.9844 L283.6667,344.9844 L283.6667,342.651 L274.3333,342.651 " fill="#000000" style="stroke:;stroke-width:0.0;stroke-dasharray:;"/><path d="M285.6667,342.651 L285.6667,344.9844 L295,344.9844 L295,342.651 L285.6667,342.651 " fill="#000000" style="stroke:;stroke-width:0.0;stroke-dasharray:;"/><text fill="#000000" font-family="sans-serif" font-size="14" lengthAdjust="spacing" textLength="122" x="300" y="352.1826">translations : json</text><path d="M263,358.9479 L263,361.2813 L272.3333,361.2813 L272.3333,358.9479 L263,358.9479 " fill="#000000" style="stroke:;stroke-width:0.0;stroke-dasharray:;"/><path d="M274.3333,358.9479 L274.3333,361.2813 L283.6667,361.2813 L283.6667,358.9479 L274.3333,358.9479 " fill="#000000" style="stroke:;stroke-width:0.0;stroke-dasharray:;"/><path d="M285.6667,358.9479 L285.6667,361.2813 L295,361.2813 L295,358.9479 L285.6667,358.9479 " fill="#000000" style="stroke:;stroke-width:0.0;stroke-dasharray:;"/><text fill="#000000" font-family="sans-serif" font-size="14" lengthAdjust="spacing" textLength="161" x="300" y="368.4795">updated_at : datetime6</text></g><!--class product--><g id="elem_product"><rect codeLine="101" fill="#F1F1F1" height="121.4844" id="product" rx="2.5" ry="2.5" style="stroke:#181818;stroke-width:0.5;" width="241" x="640.5" y="246.5"/><ellipse cx="729.75" cy="262.5" fill="#FFAAAA" rx="11" ry="11" style="stroke:#181818;stroke-width:1.0;"/><path d="M730.5938,269.25 L728.1406,269.25 L728.1406,259 L725,259 L725,256.8594 L733.7344,256.8594 L733.7344,259 L730.5938,259 L730.5938,269.25 Z " fill="#000000"/><text fill="#000000" font-family="sans-serif" font-size="14" lengthAdjust="spacing" textLength="54" x="750.25" y="267.3467">product</text><line style="stroke:#181818;stroke-width:0.5;" x1="641.5" x2="880.5" y1="278.5" y2="278.5"/><path d="M653.9167,285.9635 C652.3067,285.9635 651,287.2702 651,288.8802 C651,289.0669 651,289.2535 651.035,289.4285 L647.5,292.9635 L647.5,295.2969 L651,295.2969 L651,292.9635 L653.3333,292.9635 L653.3333,291.7969 L653.3683,291.7619 C653.5433,291.7969 653.73,291.7969 653.9167,291.7969 C655.5267,291.7969 656.8333,290.4902 656.8333,288.8802 C656.8333,287.2702 655.5267,285.9635 653.9167,285.9635 M654.5,287.1302 C655.1417,287.1302 655.6667,287.6552 655.6667,288.2969 C655.6667,288.9385 655.1417,289.4635 654.5,289.4635 C653.8583,289.4635 653.3333,288.9385 653.3333,288.2969 C653.3333,287.6552 653.8583,287.1302 654.5,287.1302 " fill="#FF0000" style="stroke:;stroke-width:0.0;stroke-dasharray:;"/><path d="M658.8333,285.9635 L658.8333,288.2969 L668.1667,288.2969 L668.1667,285.9635 L658.8333,285.9635 " fill="#000000" style="stroke:;stroke-width:0.0;stroke-dasharray:;"/><path d="M670.1667,285.9635 L670.1667,288.2969 L679.5,288.2969 L679.5,285.9635 L670.1667,285.9635 " fill="#000000" style="stroke:;stroke-width:0.0;stroke-dasharray:;"/><text fill="#000000" font-family="sans-serif" font-size="14" lengthAdjust="spacing" textLength="4" x="680.5" y="295.4951">&#160;</text><text fill="#FF0000" font-family="sans-serif" font-size="14" lengthAdjust="spacing" text-decoration="underline" textLength="129" x="684.5" y="295.4951">id : int10 unsigned</text><path d="M647.5,302.2604 L647.5,304.5938 L656.8333,304.5938 L656.8333,302.2604 L647.5,302.2604 " fill="#000000" style="stroke:;stroke-width:0.0;stroke-dasharray:;"/><path d="M658.8333,302.2604 L658.8333,304.5938 L668.1667,304.5938 L668.1667,302.2604 L658.8333,302.2604 " fill="#000000" style="stroke:;stroke-width:0.0;stroke-dasharray:;"/><path d="M674.8333,302.2604 L674.8333,311.5938 L676,311.5938 L676,302.2604 L674.8333,302.2604 M672.5,303.4271 L672.5,310.4271 L673.6667,310.4271 L673.6667,303.4271 L672.5,303.4271 M677.1667,304.5938 L677.1667,309.2604 L678.3333,309.2604 L678.3333,304.5938 L677.1667,304.5938 M670.1667,305.7604 L670.1667,308.0938 L671.3333,308.0938 L671.3333,305.7604 L670.1667,305.7604 " fill="#000000" style="stroke:;stroke-width:0.0;stroke-dasharray:;"/><text fill="#000000" font-family="sans-serif" font-size="14" lengthAdjust="spacing" textLength="133" x="684.5" y="311.792">customer_id : int11</text><path d="M647.5,318.5573 L647.5,320.8906 L656.8333,320.8906 L656.8333,318.5573 L647.5,318.5573 " fill="#000000" style="stroke:;stroke-width:0.0;stroke-dasharray:;"/><path d="M658.8333,318.5573 L658.8333,320.8906 L668.1667,320.8906 L668.1667,318.5573 L658.8333,318.5573 " fill="#000000" style="stroke:;stroke-width:0.0;stroke-dasharray:;"/><path d="M674.8333,318.5573 L674.8333,327.8906 L676,327.8906 L676,318.5573 L674.8333,318.5573 M672.5,319.724 L672.5,326.724 L673.6667,326.724 L673.6667,319.724 L672.5,319.724 M677.1667,320.8906 L677.1667,325.5573 L678.3333,325.5573 L678.3333,320.8906 L677.1667,320.8906 M670.1667,322.0573 L670.1667,324.3906 L671.3333,324.3906 L671.3333,322.0573 L670.1667,322.0573 " fill="#000000" style="stroke:;stroke-width:0.0;stroke-dasharray:;"/><text fill="#000000" font-family="sans-serif" font-size="14" lengthAdjust="spacing" textLength="191" x="684.5" y="328.0889">external_id : int10 unsigned</text><path d="M647.5,334.8542 L647.5,337.1875 L656.8333,337.1875 L656.8333,334.8542 L647.5,334.8542 " fill="#000000" style="stroke:;stroke-width:0.0;stroke-dasharray:;"/><path d="M658.8333,334.8542 L658.8333,337.1875 L668.1667,337.1875 L668.1667,334.8542 L658.8333,334.8542 " fill="#000000" style="stroke:;stroke-width:0.0;stroke-dasharray:;"/><path d="M670.1667,334.8542 L670.1667,337.1875 L679.5,337.1875 L679.5,334.8542 L670.1667,334.8542 " fill="#000000" style="stroke:;stroke-width:0.0;stroke-dasharray:;"/><text fill="#000000" font-family="sans-serif" font-size="14" lengthAdjust="spacing" textLength="156" x="684.5" y="344.3857">created_at : datetime6</text><path d="M647.5,351.151 L647.5,353.4844 L656.8333,353.4844 L656.8333,351.151 L647.5,351.151 " fill="#000000" style="stroke:;stroke-width:0.0;stroke-dasharray:;"/><path d="M658.8333,351.151 L658.8333,353.4844 L668.1667,353.4844 L668.1667,351.151 L658.8333,351.151 " fill="#000000" style="stroke:;stroke-width:0.0;stroke-dasharray:;"/><path d="M670.1667,351.151 L670.1667,353.4844 L679.5,353.4844 L679.5,351.151 L670.1667,351.151 " fill="#000000" style="stroke:;stroke-width:0.0;stroke-dasharray:;"/><text fill="#000000" font-family="sans-serif" font-size="14" lengthAdjust="spacing" textLength="161" x="684.5" y="360.6826">updated_at : datetime6</text></g><!--class product_attribute--><g id="elem_product_attribute"><rect codeLine="110" fill="#F1F1F1" height="137.7813" id="product_attribute" rx="2.5" ry="2.5" style="stroke:#181818;stroke-width:0.5;" width="292" x="384" y="15"/><ellipse cx="466.25" cy="31" fill="#FFAAAA" rx="11" ry="11" style="stroke:#181818;stroke-width:1.0;"/><path d="M467.0938,37.75 L464.6406,37.75 L464.6406,27.5 L461.5,27.5 L461.5,25.3594 L470.2344,25.3594 L470.2344,27.5 L467.0938,27.5 L467.0938,37.75 Z " fill="#000000"/><text fill="#000000" font-family="sans-serif" font-size="14" lengthAdjust="spacing" textLength="119" x="486.75" y="35.8467">product_attribute</text><line style="stroke:#181818;stroke-width:0.5;" x1="385" x2="675" y1="47" y2="47"/><path d="M397.4167,54.4635 C395.8067,54.4635 394.5,55.7702 394.5,57.3802 C394.5,57.5669 394.5,57.7535 394.535,57.9285 L391,61.4635 L391,63.7969 L394.5,63.7969 L394.5,61.4635 L396.8333,61.4635 L396.8333,60.2969 L396.8683,60.2619 C397.0433,60.2969 397.23,60.2969 397.4167,60.2969 C399.0267,60.2969 400.3333,58.9902 400.3333,57.3802 C400.3333,55.7702 399.0267,54.4635 397.4167,54.4635 M398,55.6302 C398.6417,55.6302 399.1667,56.1552 399.1667,56.7969 C399.1667,57.4385 398.6417,57.9635 398,57.9635 C397.3583,57.9635 396.8333,57.4385 396.8333,56.7969 C396.8333,56.1552 397.3583,55.6302 398,55.6302 " fill="#FF0000" style="stroke:;stroke-width:0.0;stroke-dasharray:;"/><path d="M402.3333,54.4635 L402.3333,56.7969 L411.6667,56.7969 L411.6667,54.4635 L402.3333,54.4635 " fill="#000000" style="stroke:;stroke-width:0.0;stroke-dasharray:;"/><path d="M413.6667,54.4635 L413.6667,56.7969 L423,56.7969 L423,54.4635 L413.6667,54.4635 " fill="#000000" style="stroke:;stroke-width:0.0;stroke-dasharray:;"/><text fill="#000000" font-family="sans-serif" font-size="14" lengthAdjust="spacing" textLength="4" x="424" y="63.9951">&#160;</text><text fill="#FF0000" font-family="sans-serif" font-size="14" lengthAdjust="spacing" text-decoration="underline" textLength="60" x="428" y="63.9951">id : int11</text><path d="M391,70.7604 L391,73.0937 L400.3333,73.0937 L400.3333,70.7604 L391,70.7604 " fill="#000000" style="stroke:;stroke-width:0.0;stroke-dasharray:;"/><path d="M402.3333,70.7604 L402.3333,73.0937 L411.6667,73.0937 L411.6667,70.7604 L402.3333,70.7604 " fill="#000000" style="stroke:;stroke-width:0.0;stroke-dasharray:;"/><path d="M413.6667,70.7604 L413.6667,73.0937 L423,73.0937 L423,70.7604 L413.6667,70.7604 " fill="#000000" style="stroke:;stroke-width:0.0;stroke-dasharray:;"/><text fill="#000000" font-family="sans-serif" font-size="14" lengthAdjust="spacing" textLength="194" x="428" y="80.292">attribute_id : int10 unsigned</text><path d="M391,87.0573 L391,89.3906 L400.3333,89.3906 L400.3333,87.0573 L391,87.0573 " fill="#000000" style="stroke:;stroke-width:0.0;stroke-dasharray:;"/><path d="M402.3333,87.0573 L402.3333,89.3906 L411.6667,89.3906 L411.6667,87.0573 L402.3333,87.0573 " fill="#000000" style="stroke:;stroke-width:0.0;stroke-dasharray:;"/><path d="M413.6667,87.0573 L413.6667,89.3906 L423,89.3906 L423,87.0573 L413.6667,87.0573 " fill="#000000" style="stroke:;stroke-width:0.0;stroke-dasharray:;"/><text fill="#000000" font-family="sans-serif" font-size="14" lengthAdjust="spacing" textLength="242" x="428" y="96.5889">training_course_id : int10 unsigned</text><path d="M391,103.3542 L391,105.6875 L400.3333,105.6875 L400.3333,103.3542 L391,103.3542 " fill="#000000" style="stroke:;stroke-width:0.0;stroke-dasharray:;"/><path d="M402.3333,103.3542 L402.3333,105.6875 L411.6667,105.6875 L411.6667,103.3542 L402.3333,103.3542 " fill="#000000" style="stroke:;stroke-width:0.0;stroke-dasharray:;"/><path d="M413.6667,103.3542 L413.6667,105.6875 L423,105.6875 L423,103.3542 L413.6667,103.3542 " fill="#000000" style="stroke:;stroke-width:0.0;stroke-dasharray:;"/><text fill="#000000" font-family="sans-serif" font-size="14" lengthAdjust="spacing" textLength="156" x="428" y="112.8857">created_at : datetime6</text><path d="M391,119.651 L391,121.9844 L400.3333,121.9844 L400.3333,119.651 L391,119.651 " fill="#000000" style="stroke:;stroke-width:0.0;stroke-dasharray:;"/><path d="M402.3333,119.651 L402.3333,121.9844 L411.6667,121.9844 L411.6667,119.651 L402.3333,119.651 " fill="#000000" style="stroke:;stroke-width:0.0;stroke-dasharray:;"/><path d="M413.6667,119.651 L413.6667,121.9844 L423,121.9844 L423,119.651 L413.6667,119.651 " fill="#000000" style="stroke:;stroke-width:0.0;stroke-dasharray:;"/><text fill="#000000" font-family="sans-serif" font-size="14" lengthAdjust="spacing" textLength="128" x="428" y="129.1826">relevance : double</text><path d="M391,135.9479 L391,138.2813 L400.3333,138.2813 L400.3333,135.9479 L391,135.9479 " fill="#000000" style="stroke:;stroke-width:0.0;stroke-dasharray:;"/><path d="M402.3333,135.9479 L402.3333,138.2813 L411.6667,138.2813 L411.6667,135.9479 L402.3333,135.9479 " fill="#000000" style="stroke:;stroke-width:0.0;stroke-dasharray:;"/><path d="M413.6667,135.9479 L413.6667,138.2813 L423,138.2813 L423,135.9479 L413.6667,135.9479 " fill="#000000" style="stroke:;stroke-width:0.0;stroke-dasharray:;"/><text fill="#000000" font-family="sans-serif" font-size="14" lengthAdjust="spacing" textLength="161" x="428" y="145.4795">updated_at : datetime6</text></g><!--link learner to customer--><g id="link_learner_customer"><path codeLine="77" d="M212.23,367.76 C256.96,394.97 304.2543,423.7412 347.2143,449.8812 " fill="none" id="learner-to-customer" style="stroke:#181818;stroke-width:1.0;"/><polygon fill="#181818" points="352.34,453,346.7307,444.9046,348.0686,450.401,342.5722,451.7389,352.34,453" style="stroke:#181818;stroke-width:1.0;"/><text fill="#000000" font-family="sans-serif" font-size="13" lengthAdjust="spacing" textLength="11" x="296" y="419.0669">id</text><text fill="#000000" font-family="sans-serif" font-size="13" lengthAdjust="spacing" textLength="23" x="199.8002" y="388.1247">0..*</text><text fill="#000000" font-family="sans-serif" font-size="13" lengthAdjust="spacing" textLength="8" x="332.4263" y="442.0007">1</text></g><!--link learner_attribute to attribute--><g id="link_learner_attribute_attribute"><path codeLine="88" d="M282.76,161.06 C304.68,186.03 324.9314,209.1012 346.3014,233.4412 " fill="none" id="learner_attribute-to-attribute" style="stroke:#181818;stroke-width:1.0;"/><polygon fill="#181818" points="350.26,237.95,347.3279,228.5477,346.9611,234.1927,341.3162,233.8259,350.26,237.95" style="stroke:#181818;stroke-width:1.0;"/><text fill="#000000" font-family="sans-serif" font-size="13" lengthAdjust="spacing" textLength="11" x="320" y="204.0669">id</text><text fill="#000000" font-family="sans-serif" font-size="13" lengthAdjust="spacing" textLength="23" x="265.027" y="181.1891">0..*</text><text fill="#000000" font-family="sans-serif" font-size="13" lengthAdjust="spacing" textLength="8" x="335.6868" y="227.1408">1</text></g><!--link learner_attribute to learner--><g id="link_learner_attribute_learner"><path codeLine="89" d="M180.9,161.06 C168.05,188.9 156.2133,214.5318 144.1133,240.7618 " fill="none" id="learner_attribute-to-learner" style="stroke:#181818;stroke-width:1.0;"/><polygon fill="#181818" points="141.6,246.21,149.0021,239.7132,143.6944,241.6698,141.7378,236.3621,141.6,246.21" style="stroke:#181818;stroke-width:1.0;"/><text fill="#000000" font-family="sans-serif" font-size="13" lengthAdjust="spacing" textLength="11" x="166" y="204.0669">id</text><text fill="#000000" font-family="sans-serif" font-size="13" lengthAdjust="spacing" textLength="23" x="153.4584" y="181.1891">0..*</text><text fill="#000000" font-family="sans-serif" font-size="13" lengthAdjust="spacing" textLength="8" x="136.3287" y="235.3605">1</text></g><!--link attribute to attribute--><g id="link_attribute_attribute"><path codeLine="99" d="M564.25,289.37 C585.11,292.32 599,298.2 599,307 C599,315.8 591.0509,320.8398 570.1909,323.7898 " fill="none" id="attribute-to-attribute" style="stroke:#181818;stroke-width:1.0;"/><polygon fill="#181818" points="564.25,324.63,573.7214,327.3304,569.2007,323.9299,572.6012,319.4092,564.25,324.63" style="stroke:#181818;stroke-width:1.0;"/><text fill="#000000" font-family="sans-serif" font-size="13" lengthAdjust="spacing" textLength="11" x="605" y="311.5669">id</text><text fill="#000000" font-family="sans-serif" font-size="13" lengthAdjust="spacing" textLength="23" x="571.7605" y="285.3062">0..*</text><text fill="#000000" font-family="sans-serif" font-size="13" lengthAdjust="spacing" textLength="8" x="571.9152" y="322.1961">1</text></g><!--link product to customer--><g id="link_product_customer"><path codeLine="108" d="M662.47,367.76 C617.6,394.97 570.1502,423.7486 527.0502,449.8886 " fill="none" id="product-to-customer" style="stroke:#181818;stroke-width:1.0;"/><polygon fill="#181818" points="521.92,453,531.6896,451.753,526.1952,450.4071,527.541,444.9127,521.92,453" style="stroke:#181818;stroke-width:1.0;"/><text fill="#000000" font-family="sans-serif" font-size="13" lengthAdjust="spacing" textLength="11" x="600" y="419.0669">id</text><text fill="#000000" font-family="sans-serif" font-size="13" lengthAdjust="spacing" textLength="23" x="626.0601" y="388.1247">0..*</text><text fill="#000000" font-family="sans-serif" font-size="13" lengthAdjust="spacing" textLength="8" x="524.7936" y="442.0007">1</text></g><!--link product_attribute to attribute--><g id="link_product_attribute_attribute"><path codeLine="118" d="M493.02,153.11 C478.42,180 464.5436,205.5575 449.9336,232.4575 " fill="none" id="product_attribute-to-attribute" style="stroke:#181818;stroke-width:1.0;"/><polygon fill="#181818" points="447.07,237.73,454.8805,231.7303,449.4564,233.3362,447.8504,227.9121,447.07,237.73" style="stroke:#181818;stroke-width:1.0;"/><text fill="#000000" font-family="sans-serif" font-size="13" lengthAdjust="spacing" textLength="11" x="471" y="204.0669">id</text><text fill="#000000" font-family="sans-serif" font-size="13" lengthAdjust="spacing" textLength="23" x="465.2478" y="172.7355">0..*</text><text fill="#000000" font-family="sans-serif" font-size="13" lengthAdjust="spacing" textLength="8" x="442.4803" y="226.8981">1</text></g><!--link product_attribute to product--><g id="link_product_attribute_product"><path codeLine="119" d="M601.19,153.11 C632.35,182.91 664.2347,213.4221 694.3047,242.1921 " fill="none" id="product_attribute-to-product" style="stroke:#181818;stroke-width:1.0;"/><polygon fill="#181818" points="698.64,246.34,694.9023,237.2279,695.0272,242.8834,689.3718,243.0084,698.64,246.34" style="stroke:#181818;stroke-width:1.0;"/><text fill="#000000" font-family="sans-serif" font-size="13" lengthAdjust="spacing" textLength="11" x="653" y="204.0669">id</text><text fill="#000000" font-family="sans-serif" font-size="13" lengthAdjust="spacing" textLength="23" x="584.0657" y="172.7355">0..*</text><text fill="#000000" font-family="sans-serif" font-size="13" lengthAdjust="spacing" textLength="8" x="682.9671" y="235.5056">1</text></g><!--SRC=[pLTjJniv4FwUNp5i4IHj8A6ddgeeHAguGwhWe7U5pv6pdYG-lFQUN-2ugl_znbulIQ1vA-eTI8kzwvd7usUU6Ilxu5MkYmAL0pT5a48XZ53gEn1ZkDT-to1uAzG4oApq3WtS2JS51WQTK0ouiALazurzi3T2bSom0dWfuATkjx4p9dGdj88hDfBOt5Mim5O3O8USlL6GvP9P2ncyWRX6OmRzFZIlsgzEJp_GNmi6WwonWuhNMBJJNOY9ujIImrWRA8qecBc76mnnJ0oYed0bhOHLhyHV7cc1AKul78tDDHqhh2djXifBEHSgEVf2LR6sOTVTbs48HiTPHhFofXh7QQpWQHuFjYiPqGV7a6KDUj-7Nof-OcoqJgms2GAEoUBJMGPxUm49TkZrz2n2B83qup5w1lcWlqSGWtudVY5Eo0wbnIM0nwi1HzBZIiJr497cPHXFVFOAeRnD1egByI8xWTuW4H0vPRZcANoDOLnSdvy_2IHDtWJq4LDBDv-tMnr5bSh56DAt4CNrnSVVhtzT6GVpNEW3MsBkZ2-U4L8gAwWCXOhLQSHawfAocv_Esd1ApqYxQPk4h71HWBCz88BlLiB-JB65rOTowrNb5tI-lK3d3k87SsADa7CR1eEaaNx7VwzwlxLRLF9Msss7NybyqmsM0SxvBYIwReILuUC-HvcbVklOn0AxPI9MI8- -zmNjAWPXDcBvJU_aylpoZuSYRCCTkM7IYI3VD8qfft7g2fa-vPg7pjYCtVRaf1NQE6AFJ5pPwtH8WihvGXvIy-_4NetsCBY_-eqwQ6CgE4A1RggvhLuiNH2eWvPiOtOVHCyFpXaneXla8vNNP_4FGhT1sz7D8vmWyxbfTLlatZfTe6d15s8gjULCS6gwcL3kw2XCBYwl87Q7TXGG_OzFQy4Z08y5ch1qoqm-PURexVl7xlKpL-OrH6wGEUH3ve81fxaJ1Vwy3671rvTyIz-lZSI0H6RKSWAwrB2ic2Za6p9HCpfSGU8A5l1logvYChad9j- -U_U2cKmKGjOzF7oTmS710BAZ36ecGlUZqpmYd7P8MdskzXw0XfkaxPiGTKpV3V0SocaxAcXRUMfF76qOyotABNsUaTrPlXxdURQG4htMenRCeZ3M2cBhMYnOMSRJhXN8slpCId8cpHzRYSumPIKBrvGDYtzQhNvOaZTFRafMQJJtkNkXRNEp2du1hJFHk67hJDOlgdMIJ8MYtwx3N7jZyVzfeGQf6pALut_G3vyaOMt9hFMeLP3i_mK0]--></g></svg>
