<svg xmlns="http://www.w3.org/2000/svg" xmlns:xlink="http://www.w3.org/1999/xlink" contentStyleType="text/css" height="565px" preserveAspectRatio="none" style="width:908px;height:565px;background:#FFFFFF;" version="1.1" viewBox="0 0 908 565" width="908px" zoomAndPan="magnify"><defs/><g><!--class customer--><g id="elem_customer"><rect codeLine="63" fill="#F1F1F1" height="105.1875" id="customer" rx="2.5" ry="2.5" style="stroke:#181818;stroke-width:0.5;" width="215.4561" x="339.5" y="453"/><ellipse cx="410.0151" cy="469" fill="#FFAAAA" rx="11" ry="11" style="stroke:#181818;stroke-width:1.0;"/><path d="M410.8589,475.75 L408.4058,475.75 L408.4058,465.5 L405.2651,465.5 L405.2651,463.3594 L413.9995,463.3594 L413.9995,465.5 L410.8589,465.5 L410.8589,475.75 Z " fill="#000000"/><text fill="#000000" font-family="sans-serif" font-size="14" lengthAdjust="spacing" textLength="65.9258" x="430.5151" y="473.8467">customer</text><line style="stroke:#181818;stroke-width:0.5;" x1="340.5" x2="553.9561" y1="485" y2="485"/><path d="M352.9167,492.4635 C351.3067,492.4635 350,493.7702 350,495.3802 C350,495.5669 350,495.7535 350.035,495.9285 L346.5,499.4635 L346.5,501.7969 L350,501.7969 L350,499.4635 L352.3333,499.4635 L352.3333,498.2969 L352.3683,498.2619 C352.5433,498.2969 352.73,498.2969 352.9167,498.2969 C354.5267,498.2969 355.8333,496.9902 355.8333,495.3802 C355.8333,493.7702 354.5267,492.4635 352.9167,492.4635 M353.5,493.6302 C354.1417,493.6302 354.6667,494.1552 354.6667,494.7969 C354.6667,495.4385 354.1417,495.9635 353.5,495.9635 C352.8583,495.9635 352.3333,495.4385 352.3333,494.7969 C352.3333,494.1552 352.8583,493.6302 353.5,493.6302 " fill="#FF0000" style="stroke:;stroke-width:0.0;stroke-dasharray:;"/><path d="M357.8333,495.9635 L357.8333,498.2969 L367.1667,498.2969 L367.1667,495.9635 L357.8333,495.9635 " fill="#000000" style="stroke:;stroke-width:0.0;stroke-dasharray:;"/><path d="M369.1667,495.9635 L369.1667,498.2969 L378.5,498.2969 L378.5,495.9635 L369.1667,495.9635 " fill="#000000" style="stroke:;stroke-width:0.0;stroke-dasharray:;"/><text fill="#000000" font-family="sans-serif" font-size="14" lengthAdjust="spacing" textLength="4.4502" x="379.5" y="501.9951">&#160;</text><text fill="#FF0000" font-family="sans-serif" font-size="14" lengthAdjust="spacing" text-decoration="underline" textLength="62.46" x="383.9502" y="501.9951">id : int11</text><path d="M346.5,512.2604 L346.5,514.5938 L355.8333,514.5938 L355.8333,512.2604 L346.5,512.2604 " fill="#000000" style="stroke:;stroke-width:0.0;stroke-dasharray:;"/><path d="M357.8333,512.2604 L357.8333,514.5938 L367.1667,514.5938 L367.1667,512.2604 L357.8333,512.2604 " fill="#000000" style="stroke:;stroke-width:0.0;stroke-dasharray:;"/><path d="M373.8333,508.7604 L373.8333,518.0938 L375,518.0938 L375,508.7604 L373.8333,508.7604 M371.5,509.9271 L371.5,516.9271 L372.6667,516.9271 L372.6667,509.9271 L371.5,509.9271 M376.1667,511.0938 L376.1667,515.7604 L377.3333,515.7604 L377.3333,511.0938 L376.1667,511.0938 M369.1667,512.2604 L369.1667,514.5938 L370.3333,514.5938 L370.3333,512.2604 L369.1667,512.2604 " fill="#000000" style="stroke:;stroke-width:0.0;stroke-dasharray:;"/><text fill="#000000" font-family="sans-serif" font-size="14" lengthAdjust="spacing" textLength="156.6934" x="383.9502" y="518.292">identifier : varchar128</text><path d="M346.5,528.5573 L346.5,530.8906 L355.8333,530.8906 L355.8333,528.5573 L346.5,528.5573 " fill="#000000" style="stroke:;stroke-width:0.0;stroke-dasharray:;"/><path d="M357.8333,528.5573 L357.8333,530.8906 L367.1667,530.8906 L367.1667,528.5573 L357.8333,528.5573 " fill="#000000" style="stroke:;stroke-width:0.0;stroke-dasharray:;"/><path d="M369.1667,528.5573 L369.1667,530.8906 L378.5,530.8906 L378.5,528.5573 L369.1667,528.5573 " fill="#000000" style="stroke:;stroke-width:0.0;stroke-dasharray:;"/><text fill="#000000" font-family="sans-serif" font-size="14" lengthAdjust="spacing" textLength="160.4258" x="383.9502" y="534.5889">created_at : datetime6</text><path d="M346.5,544.8542 L346.5,547.1875 L355.8333,547.1875 L355.8333,544.8542 L346.5,544.8542 " fill="#000000" style="stroke:;stroke-width:0.0;stroke-dasharray:;"/><path d="M357.8333,544.8542 L357.8333,547.1875 L367.1667,547.1875 L367.1667,544.8542 L357.8333,544.8542 " fill="#000000" style="stroke:;stroke-width:0.0;stroke-dasharray:;"/><path d="M369.1667,544.8542 L369.1667,547.1875 L378.5,547.1875 L378.5,544.8542 L369.1667,544.8542 " fill="#000000" style="stroke:;stroke-width:0.0;stroke-dasharray:;"/><text fill="#000000" font-family="sans-serif" font-size="14" lengthAdjust="spacing" textLength="165.0059" x="383.9502" y="550.8857">updated_at : datetime6</text></g><!--class learner--><g id="elem_learner"><rect codeLine="70" fill="#F1F1F1" height="121.4844" id="learner" rx="2.5" ry="2.5" style="stroke:#181818;stroke-width:0.5;" width="222.1895" x="7" y="246.5"/><ellipse cx="88.8047" cy="262.5" fill="#FFAAAA" rx="11" ry="11" style="stroke:#181818;stroke-width:1.0;"/><path d="M89.6484,269.25 L87.1953,269.25 L87.1953,259 L84.0547,259 L84.0547,256.8594 L92.7891,256.8594 L92.7891,259 L89.6484,259 L89.6484,269.25 Z " fill="#000000"/><text fill="#000000" font-family="sans-serif" font-size="14" lengthAdjust="spacing" textLength="50.0801" x="109.3047" y="267.3467">learner</text><line style="stroke:#181818;stroke-width:0.5;" x1="8" x2="228.1895" y1="278.5" y2="278.5"/><path d="M20.4167,285.9635 C18.8067,285.9635 17.5,287.2702 17.5,288.8802 C17.5,289.0669 17.5,289.2535 17.535,289.4285 L14,292.9635 L14,295.2969 L17.5,295.2969 L17.5,292.9635 L19.8333,292.9635 L19.8333,291.7969 L19.8683,291.7619 C20.0433,291.7969 20.23,291.7969 20.4167,291.7969 C22.0267,291.7969 23.3333,290.4902 23.3333,288.8802 C23.3333,287.2702 22.0267,285.9635 20.4167,285.9635 M21,287.1302 C21.6417,287.1302 22.1667,287.6552 22.1667,288.2969 C22.1667,288.9385 21.6417,289.4635 21,289.4635 C20.3583,289.4635 19.8333,288.9385 19.8333,288.2969 C19.8333,287.6552 20.3583,287.1302 21,287.1302 " fill="#FF0000" style="stroke:;stroke-width:0.0;stroke-dasharray:;"/><path d="M25.3333,289.4635 L25.3333,291.7969 L34.6667,291.7969 L34.6667,289.4635 L25.3333,289.4635 " fill="#000000" style="stroke:;stroke-width:0.0;stroke-dasharray:;"/><path d="M36.6667,289.4635 L36.6667,291.7969 L46,291.7969 L46,289.4635 L36.6667,289.4635 " fill="#000000" style="stroke:;stroke-width:0.0;stroke-dasharray:;"/><text fill="#000000" font-family="sans-serif" font-size="14" lengthAdjust="spacing" textLength="4.4502" x="47" y="295.4951">&#160;</text><text fill="#FF0000" font-family="sans-serif" font-size="14" lengthAdjust="spacing" text-decoration="underline" textLength="131.0996" x="51.4502" y="295.4951">id : int10 unsigned</text><path d="M14,305.7604 L14,308.0938 L23.3333,308.0938 L23.3333,305.7604 L14,305.7604 " fill="#000000" style="stroke:;stroke-width:0.0;stroke-dasharray:;"/><path d="M25.3333,305.7604 L25.3333,308.0938 L34.6667,308.0938 L34.6667,305.7604 L25.3333,305.7604 " fill="#000000" style="stroke:;stroke-width:0.0;stroke-dasharray:;"/><path d="M41.3333,302.2604 L41.3333,311.5938 L42.5,311.5938 L42.5,302.2604 L41.3333,302.2604 M39,303.4271 L39,310.4271 L40.1667,310.4271 L40.1667,303.4271 L39,303.4271 M43.6667,304.5938 L43.6667,309.2604 L44.8333,309.2604 L44.8333,304.5938 L43.6667,304.5938 M36.6667,305.7604 L36.6667,308.0938 L37.8333,308.0938 L37.8333,305.7604 L36.6667,305.7604 " fill="#000000" style="stroke:;stroke-width:0.0;stroke-dasharray:;"/><text fill="#000000" font-family="sans-serif" font-size="14" lengthAdjust="spacing" textLength="135.3857" x="51.4502" y="311.792">customer_id : int11</text><path d="M14,322.0573 L14,324.3906 L23.3333,324.3906 L23.3333,322.0573 L14,322.0573 " fill="#000000" style="stroke:;stroke-width:0.0;stroke-dasharray:;"/><path d="M25.3333,322.0573 L25.3333,324.3906 L34.6667,324.3906 L34.6667,322.0573 L25.3333,322.0573 " fill="#000000" style="stroke:;stroke-width:0.0;stroke-dasharray:;"/><path d="M41.3333,318.5573 L41.3333,327.8906 L42.5,327.8906 L42.5,318.5573 L41.3333,318.5573 M39,319.724 L39,326.724 L40.1667,326.724 L40.1667,319.724 L39,319.724 M43.6667,320.8906 L43.6667,325.5573 L44.8333,325.5573 L44.8333,320.8906 L43.6667,320.8906 M36.6667,322.0573 L36.6667,324.3906 L37.8333,324.3906 L37.8333,322.0573 L36.6667,322.0573 " fill="#000000" style="stroke:;stroke-width:0.0;stroke-dasharray:;"/><text fill="#000000" font-family="sans-serif" font-size="14" lengthAdjust="spacing" textLength="171.7393" x="51.4502" y="328.0889">external_id : varchar255</text><path d="M14,338.3542 L14,340.6875 L23.3333,340.6875 L23.3333,338.3542 L14,338.3542 " fill="#000000" style="stroke:;stroke-width:0.0;stroke-dasharray:;"/><path d="M25.3333,338.3542 L25.3333,340.6875 L34.6667,340.6875 L34.6667,338.3542 L25.3333,338.3542 " fill="#000000" style="stroke:;stroke-width:0.0;stroke-dasharray:;"/><path d="M36.6667,338.3542 L36.6667,340.6875 L46,340.6875 L46,338.3542 L36.6667,338.3542 " fill="#000000" style="stroke:;stroke-width:0.0;stroke-dasharray:;"/><text fill="#000000" font-family="sans-serif" font-size="14" lengthAdjust="spacing" textLength="160.4258" x="51.4502" y="344.3857">created_at : datetime6</text><path d="M14,354.651 L14,356.9844 L23.3333,356.9844 L23.3333,354.651 L14,354.651 " fill="#000000" style="stroke:;stroke-width:0.0;stroke-dasharray:;"/><path d="M25.3333,354.651 L25.3333,356.9844 L34.6667,356.9844 L34.6667,354.651 L25.3333,354.651 " fill="#000000" style="stroke:;stroke-width:0.0;stroke-dasharray:;"/><path d="M36.6667,354.651 L36.6667,356.9844 L46,356.9844 L46,354.651 L36.6667,354.651 " fill="#000000" style="stroke:;stroke-width:0.0;stroke-dasharray:;"/><text fill="#000000" font-family="sans-serif" font-size="14" lengthAdjust="spacing" textLength="165.0059" x="51.4502" y="360.6826">updated_at : datetime6</text></g><!--class learner_attribute--><g id="elem_learner_attribute"><rect codeLine="79" fill="#F1F1F1" height="154.0781" id="learner_attribute" rx="2.5" ry="2.5" style="stroke:#181818;stroke-width:0.5;" width="249.6152" x="97" y="7"/><ellipse cx="158.4849" cy="23" fill="#FFAAAA" rx="11" ry="11" style="stroke:#181818;stroke-width:1.0;"/><path d="M159.3286,29.75 L156.8755,29.75 L156.8755,19.5 L153.7349,19.5 L153.7349,17.3594 L162.4692,17.3594 L162.4692,19.5 L159.3286,19.5 L159.3286,29.75 Z " fill="#000000"/><text fill="#000000" font-family="sans-serif" font-size="14" lengthAdjust="spacing" textLength="118.1455" x="178.9849" y="27.8467">learner_attribute</text><line style="stroke:#181818;stroke-width:0.5;" x1="98" x2="345.6152" y1="39" y2="39"/><path d="M110.4167,46.4635 C108.8067,46.4635 107.5,47.7702 107.5,49.3802 C107.5,49.5669 107.5,49.7535 107.535,49.9285 L104,53.4635 L104,55.7969 L107.5,55.7969 L107.5,53.4635 L109.8333,53.4635 L109.8333,52.2969 L109.8683,52.2619 C110.0433,52.2969 110.23,52.2969 110.4167,52.2969 C112.0267,52.2969 113.3333,50.9902 113.3333,49.3802 C113.3333,47.7702 112.0267,46.4635 110.4167,46.4635 M111,47.6302 C111.6417,47.6302 112.1667,48.1552 112.1667,48.7969 C112.1667,49.4385 111.6417,49.9635 111,49.9635 C110.3583,49.9635 109.8333,49.4385 109.8333,48.7969 C109.8333,48.1552 110.3583,47.6302 111,47.6302 " fill="#FF0000" style="stroke:;stroke-width:0.0;stroke-dasharray:;"/><path d="M115.3333,49.9635 L115.3333,52.2969 L124.6667,52.2969 L124.6667,49.9635 L115.3333,49.9635 " fill="#000000" style="stroke:;stroke-width:0.0;stroke-dasharray:;"/><path d="M126.6667,49.9635 L126.6667,52.2969 L136,52.2969 L136,49.9635 L126.6667,49.9635 " fill="#000000" style="stroke:;stroke-width:0.0;stroke-dasharray:;"/><text fill="#000000" font-family="sans-serif" font-size="14" lengthAdjust="spacing" textLength="4.4502" x="137" y="55.9951">&#160;</text><text fill="#FF0000" font-family="sans-serif" font-size="14" lengthAdjust="spacing" text-decoration="underline" textLength="62.46" x="141.4502" y="55.9951">id : int11</text><path d="M104,66.2604 L104,68.5938 L113.3333,68.5938 L113.3333,66.2604 L104,66.2604 " fill="#000000" style="stroke:;stroke-width:0.0;stroke-dasharray:;"/><path d="M115.3333,66.2604 L115.3333,68.5938 L124.6667,68.5938 L124.6667,66.2604 L115.3333,66.2604 " fill="#000000" style="stroke:;stroke-width:0.0;stroke-dasharray:;"/><path d="M126.6667,66.2604 L126.6667,68.5938 L136,68.5938 L136,66.2604 L126.6667,66.2604 " fill="#000000" style="stroke:;stroke-width:0.0;stroke-dasharray:;"/><text fill="#000000" font-family="sans-serif" font-size="14" lengthAdjust="spacing" textLength="199.165" x="141.4502" y="72.292">attribute_id : int10 unsigned</text><path d="M104,82.5573 L104,84.8906 L113.3333,84.8906 L113.3333,82.5573 L104,82.5573 " fill="#000000" style="stroke:;stroke-width:0.0;stroke-dasharray:;"/><path d="M115.3333,82.5573 L115.3333,84.8906 L124.6667,84.8906 L124.6667,82.5573 L115.3333,82.5573 " fill="#000000" style="stroke:;stroke-width:0.0;stroke-dasharray:;"/><path d="M126.6667,82.5573 L126.6667,84.8906 L136,84.8906 L136,82.5573 L126.6667,82.5573 " fill="#000000" style="stroke:;stroke-width:0.0;stroke-dasharray:;"/><text fill="#000000" font-family="sans-serif" font-size="14" lengthAdjust="spacing" textLength="188.1797" x="141.4502" y="88.5889">learner_id : int10 unsigned</text><path d="M104,98.8542 L104,101.1875 L113.3333,101.1875 L113.3333,98.8542 L104,98.8542 " fill="#000000" style="stroke:;stroke-width:0.0;stroke-dasharray:;"/><path d="M115.3333,98.8542 L115.3333,101.1875 L124.6667,101.1875 L124.6667,98.8542 L115.3333,98.8542 " fill="#000000" style="stroke:;stroke-width:0.0;stroke-dasharray:;"/><path d="M126.6667,98.8542 L126.6667,101.1875 L136,101.1875 L136,98.8542 L126.6667,98.8542 " fill="#000000" style="stroke:;stroke-width:0.0;stroke-dasharray:;"/><text fill="#000000" font-family="sans-serif" font-size="14" lengthAdjust="spacing" textLength="160.4258" x="141.4502" y="104.8857">created_at : datetime6</text><path d="M104,115.151 L104,117.4844 L113.3333,117.4844 L113.3333,115.151 L104,115.151 " fill="#000000" style="stroke:;stroke-width:0.0;stroke-dasharray:;"/><path d="M115.3333,115.151 L115.3333,117.4844 L124.6667,117.4844 L124.6667,115.151 L115.3333,115.151 " fill="#000000" style="stroke:;stroke-width:0.0;stroke-dasharray:;"/><path d="M126.6667,115.151 L126.6667,117.4844 L136,117.4844 L136,115.151 L126.6667,115.151 " fill="#000000" style="stroke:;stroke-width:0.0;stroke-dasharray:;"/><text fill="#000000" font-family="sans-serif" font-size="14" lengthAdjust="spacing" textLength="115.3496" x="141.4502" y="121.1826">interest : double</text><path d="M104,131.4479 L104,133.7813 L113.3333,133.7813 L113.3333,131.4479 L104,131.4479 " fill="#000000" style="stroke:;stroke-width:0.0;stroke-dasharray:;"/><path d="M115.3333,131.4479 L115.3333,133.7813 L124.6667,133.7813 L124.6667,131.4479 L115.3333,131.4479 " fill="#000000" style="stroke:;stroke-width:0.0;stroke-dasharray:;"/><path d="M126.6667,131.4479 L126.6667,133.7813 L136,133.7813 L136,131.4479 L126.6667,131.4479 " fill="#000000" style="stroke:;stroke-width:0.0;stroke-dasharray:;"/><text fill="#000000" font-family="sans-serif" font-size="14" lengthAdjust="spacing" textLength="94.623" x="141.4502" y="137.4795">level : double</text><path d="M104,147.7448 L104,150.0781 L113.3333,150.0781 L113.3333,147.7448 L104,147.7448 " fill="#000000" style="stroke:;stroke-width:0.0;stroke-dasharray:;"/><path d="M115.3333,147.7448 L115.3333,150.0781 L124.6667,150.0781 L124.6667,147.7448 L115.3333,147.7448 " fill="#000000" style="stroke:;stroke-width:0.0;stroke-dasharray:;"/><path d="M126.6667,147.7448 L126.6667,150.0781 L136,150.0781 L136,147.7448 L126.6667,147.7448 " fill="#000000" style="stroke:;stroke-width:0.0;stroke-dasharray:;"/><text fill="#000000" font-family="sans-serif" font-size="14" lengthAdjust="spacing" textLength="165.0059" x="141.4502" y="153.7764">updated_at : datetime6</text></g><!--class attribute--><g id="elem_attribute"><rect codeLine="91" fill="#F1F1F1" height="137.7813" id="attribute" rx="2.5" ry="2.5" style="stroke:#181818;stroke-width:0.5;" width="314.1055" x="264" y="238"/><ellipse cx="386.27" cy="254" fill="#FFAAAA" rx="11" ry="11" style="stroke:#181818;stroke-width:1.0;"/><path d="M387.1138,260.75 L384.6606,260.75 L384.6606,250.5 L381.52,250.5 L381.52,248.3594 L390.2544,248.3594 L390.2544,250.5 L387.1138,250.5 L387.1138,260.75 Z " fill="#000000"/><text fill="#000000" font-family="sans-serif" font-size="14" lengthAdjust="spacing" textLength="61.0654" x="406.77" y="258.8467">attribute</text><line style="stroke:#181818;stroke-width:0.5;" x1="265" x2="577.1055" y1="270" y2="270"/><path d="M277.4167,277.4635 C275.8067,277.4635 274.5,278.7702 274.5,280.3802 C274.5,280.5669 274.5,280.7535 274.535,280.9285 L271,284.4635 L271,286.7969 L274.5,286.7969 L274.5,284.4635 L276.8333,284.4635 L276.8333,283.2969 L276.8683,283.2619 C277.0433,283.2969 277.23,283.2969 277.4167,283.2969 C279.0267,283.2969 280.3333,281.9902 280.3333,280.3802 C280.3333,278.7702 279.0267,277.4635 277.4167,277.4635 M278,278.6302 C278.6417,278.6302 279.1667,279.1552 279.1667,279.7969 C279.1667,280.4385 278.6417,280.9635 278,280.9635 C277.3583,280.9635 276.8333,280.4385 276.8333,279.7969 C276.8333,279.1552 277.3583,278.6302 278,278.6302 " fill="#FF0000" style="stroke:;stroke-width:0.0;stroke-dasharray:;"/><path d="M282.3333,280.9635 L282.3333,283.2969 L291.6667,283.2969 L291.6667,280.9635 L282.3333,280.9635 " fill="#000000" style="stroke:;stroke-width:0.0;stroke-dasharray:;"/><path d="M293.6667,280.9635 L293.6667,283.2969 L303,283.2969 L303,280.9635 L293.6667,280.9635 " fill="#000000" style="stroke:;stroke-width:0.0;stroke-dasharray:;"/><text fill="#000000" font-family="sans-serif" font-size="14" lengthAdjust="spacing" textLength="4.4502" x="304" y="286.9951">&#160;</text><text fill="#FF0000" font-family="sans-serif" font-size="14" lengthAdjust="spacing" text-decoration="underline" textLength="131.0996" x="308.4502" y="286.9951">id : int10 unsigned</text><path d="M271,297.2604 L271,299.5938 L280.3333,299.5938 L280.3333,297.2604 L271,297.2604 " fill="#000000" style="stroke:;stroke-width:0.0;stroke-dasharray:;"/><path d="M287,293.7604 C284.4333,293.7604 282.3333,295.8604 282.3333,298.4271 C282.3333,300.9938 284.4333,303.0938 287,303.0938 C289.5667,303.0938 291.6667,300.9938 291.6667,298.4271 C291.6667,295.8604 289.5667,293.7604 287,293.7604 M287,294.9271 C287.77,294.9271 288.47,295.1721 289.0417,295.5804 L284.1533,300.4688 C283.745,299.8971 283.5,299.1971 283.5,298.4271 C283.5,296.4904 285.0633,294.9271 287,294.9271 M289.8467,296.3854 C290.255,296.9571 290.5,297.6571 290.5,298.4271 C290.5,300.3638 288.9367,301.9271 287,301.9271 C286.23,301.9271 285.53,301.6821 284.9583,301.2738 L289.8467,296.3854 " fill="#000000" style="stroke:;stroke-width:0.0;stroke-dasharray:;"/><path d="M293.6667,297.2604 L293.6667,299.5938 L303,299.5938 L303,297.2604 L293.6667,297.2604 " fill="#000000" style="stroke:;stroke-width:0.0;stroke-dasharray:;"/><text fill="#000000" font-family="sans-serif" font-size="14" lengthAdjust="spacing" textLength="263.6553" x="308.4502" y="303.292">mapped_attribute_id : int10 unsigned</text><path d="M271,313.5573 L271,315.8906 L280.3333,315.8906 L280.3333,313.5573 L271,313.5573 " fill="#000000" style="stroke:;stroke-width:0.0;stroke-dasharray:;"/><path d="M287,310.0573 C284.4333,310.0573 282.3333,312.1573 282.3333,314.724 C282.3333,317.2906 284.4333,319.3906 287,319.3906 C289.5667,319.3906 291.6667,317.2906 291.6667,314.724 C291.6667,312.1573 289.5667,310.0573 287,310.0573 M287,311.224 C287.77,311.224 288.47,311.469 289.0417,311.8773 L284.1533,316.7656 C283.745,316.194 283.5,315.494 283.5,314.724 C283.5,312.7873 285.0633,311.224 287,311.224 M289.8467,312.6823 C290.255,313.254 290.5,313.954 290.5,314.724 C290.5,316.6606 288.9367,318.224 287,318.224 C286.23,318.224 285.53,317.979 284.9583,317.5706 L289.8467,312.6823 " fill="#000000" style="stroke:;stroke-width:0.0;stroke-dasharray:;"/><path d="M298.3333,310.0573 L298.3333,319.3906 L299.5,319.3906 L299.5,310.0573 L298.3333,310.0573 M296,311.224 L296,318.224 L297.1667,318.224 L297.1667,311.224 L296,311.224 M300.6667,312.3906 L300.6667,317.0573 L301.8333,317.0573 L301.8333,312.3906 L300.6667,312.3906 M293.6667,313.5573 L293.6667,315.8906 L294.8333,315.8906 L294.8333,313.5573 L293.6667,313.5573 " fill="#000000" style="stroke:;stroke-width:0.0;stroke-dasharray:;"/><text fill="#000000" font-family="sans-serif" font-size="14" lengthAdjust="spacing" textLength="123.4229" x="308.4502" y="319.5889">internal_id : int11</text><path d="M271,329.8542 L271,332.1875 L280.3333,332.1875 L280.3333,329.8542 L271,329.8542 " fill="#000000" style="stroke:;stroke-width:0.0;stroke-dasharray:;"/><path d="M282.3333,329.8542 L282.3333,332.1875 L291.6667,332.1875 L291.6667,329.8542 L282.3333,329.8542 " fill="#000000" style="stroke:;stroke-width:0.0;stroke-dasharray:;"/><path d="M293.6667,329.8542 L293.6667,332.1875 L303,332.1875 L303,329.8542 L293.6667,329.8542 " fill="#000000" style="stroke:;stroke-width:0.0;stroke-dasharray:;"/><text fill="#000000" font-family="sans-serif" font-size="14" lengthAdjust="spacing" textLength="160.4258" x="308.4502" y="335.8857">created_at : datetime6</text><path d="M271,346.151 L271,348.4844 L280.3333,348.4844 L280.3333,346.151 L271,346.151 " fill="#000000" style="stroke:;stroke-width:0.0;stroke-dasharray:;"/><path d="M282.3333,346.151 L282.3333,348.4844 L291.6667,348.4844 L291.6667,346.151 L282.3333,346.151 " fill="#000000" style="stroke:;stroke-width:0.0;stroke-dasharray:;"/><path d="M293.6667,346.151 L293.6667,348.4844 L303,348.4844 L303,346.151 L293.6667,346.151 " fill="#000000" style="stroke:;stroke-width:0.0;stroke-dasharray:;"/><text fill="#000000" font-family="sans-serif" font-size="14" lengthAdjust="spacing" textLength="124.8105" x="308.4502" y="352.1826">translations : json</text><path d="M271,362.4479 L271,364.7813 L280.3333,364.7813 L280.3333,362.4479 L271,362.4479 " fill="#000000" style="stroke:;stroke-width:0.0;stroke-dasharray:;"/><path d="M282.3333,362.4479 L282.3333,364.7813 L291.6667,364.7813 L291.6667,362.4479 L282.3333,362.4479 " fill="#000000" style="stroke:;stroke-width:0.0;stroke-dasharray:;"/><path d="M293.6667,362.4479 L293.6667,364.7813 L303,364.7813 L303,362.4479 L293.6667,362.4479 " fill="#000000" style="stroke:;stroke-width:0.0;stroke-dasharray:;"/><text fill="#000000" font-family="sans-serif" font-size="14" lengthAdjust="spacing" textLength="165.0059" x="308.4502" y="368.4795">updated_at : datetime6</text></g><!--class product--><g id="elem_product"><rect codeLine="101" fill="#F1F1F1" height="121.4844" id="product" rx="2.5" ry="2.5" style="stroke:#181818;stroke-width:0.5;" width="246.6484" x="654.5" y="246.5"/><ellipse cx="746.4971" cy="262.5" fill="#FFAAAA" rx="11" ry="11" style="stroke:#181818;stroke-width:1.0;"/><path d="M747.3408,269.25 L744.8877,269.25 L744.8877,259 L741.7471,259 L741.7471,256.8594 L750.4814,256.8594 L750.4814,259 L747.3408,259 L747.3408,269.25 Z " fill="#000000"/><text fill="#000000" font-family="sans-serif" font-size="14" lengthAdjust="spacing" textLength="54.1543" x="766.9971" y="267.3467">product</text><line style="stroke:#181818;stroke-width:0.5;" x1="655.5" x2="900.1484" y1="278.5" y2="278.5"/><path d="M667.9167,285.9635 C666.3067,285.9635 665,287.2702 665,288.8802 C665,289.0669 665,289.2535 665.035,289.4285 L661.5,292.9635 L661.5,295.2969 L665,295.2969 L665,292.9635 L667.3333,292.9635 L667.3333,291.7969 L667.3683,291.7619 C667.5433,291.7969 667.73,291.7969 667.9167,291.7969 C669.5267,291.7969 670.8333,290.4902 670.8333,288.8802 C670.8333,287.2702 669.5267,285.9635 667.9167,285.9635 M668.5,287.1302 C669.1417,287.1302 669.6667,287.6552 669.6667,288.2969 C669.6667,288.9385 669.1417,289.4635 668.5,289.4635 C667.8583,289.4635 667.3333,288.9385 667.3333,288.2969 C667.3333,287.6552 667.8583,287.1302 668.5,287.1302 " fill="#FF0000" style="stroke:;stroke-width:0.0;stroke-dasharray:;"/><path d="M672.8333,289.4635 L672.8333,291.7969 L682.1667,291.7969 L682.1667,289.4635 L672.8333,289.4635 " fill="#000000" style="stroke:;stroke-width:0.0;stroke-dasharray:;"/><path d="M684.1667,289.4635 L684.1667,291.7969 L693.5,291.7969 L693.5,289.4635 L684.1667,289.4635 " fill="#000000" style="stroke:;stroke-width:0.0;stroke-dasharray:;"/><text fill="#000000" font-family="sans-serif" font-size="14" lengthAdjust="spacing" textLength="4.4502" x="694.5" y="295.4951">&#160;</text><text fill="#FF0000" font-family="sans-serif" font-size="14" lengthAdjust="spacing" text-decoration="underline" textLength="131.0996" x="698.9502" y="295.4951">id : int10 unsigned</text><path d="M661.5,305.7604 L661.5,308.0938 L670.8333,308.0938 L670.8333,305.7604 L661.5,305.7604 " fill="#000000" style="stroke:;stroke-width:0.0;stroke-dasharray:;"/><path d="M672.8333,305.7604 L672.8333,308.0938 L682.1667,308.0938 L682.1667,305.7604 L672.8333,305.7604 " fill="#000000" style="stroke:;stroke-width:0.0;stroke-dasharray:;"/><path d="M688.8333,302.2604 L688.8333,311.5938 L690,311.5938 L690,302.2604 L688.8333,302.2604 M686.5,303.4271 L686.5,310.4271 L687.6667,310.4271 L687.6667,303.4271 L686.5,303.4271 M691.1667,304.5938 L691.1667,309.2604 L692.3333,309.2604 L692.3333,304.5938 L691.1667,304.5938 M684.1667,305.7604 L684.1667,308.0938 L685.3333,308.0938 L685.3333,305.7604 L684.1667,305.7604 " fill="#000000" style="stroke:;stroke-width:0.0;stroke-dasharray:;"/><text fill="#000000" font-family="sans-serif" font-size="14" lengthAdjust="spacing" textLength="135.3857" x="698.9502" y="311.792">customer_id : int11</text><path d="M661.5,322.0573 L661.5,324.3906 L670.8333,324.3906 L670.8333,322.0573 L661.5,322.0573 " fill="#000000" style="stroke:;stroke-width:0.0;stroke-dasharray:;"/><path d="M672.8333,322.0573 L672.8333,324.3906 L682.1667,324.3906 L682.1667,322.0573 L672.8333,322.0573 " fill="#000000" style="stroke:;stroke-width:0.0;stroke-dasharray:;"/><path d="M688.8333,318.5573 L688.8333,327.8906 L690,327.8906 L690,318.5573 L688.8333,318.5573 M686.5,319.724 L686.5,326.724 L687.6667,326.724 L687.6667,319.724 L686.5,319.724 M691.1667,320.8906 L691.1667,325.5573 L692.3333,325.5573 L692.3333,320.8906 L691.1667,320.8906 M684.1667,322.0573 L684.1667,324.3906 L685.3333,324.3906 L685.3333,322.0573 L684.1667,322.0573 " fill="#000000" style="stroke:;stroke-width:0.0;stroke-dasharray:;"/><text fill="#000000" font-family="sans-serif" font-size="14" lengthAdjust="spacing" textLength="196.1982" x="698.9502" y="328.0889">external_id : int10 unsigned</text><path d="M661.5,338.3542 L661.5,340.6875 L670.8333,340.6875 L670.8333,338.3542 L661.5,338.3542 " fill="#000000" style="stroke:;stroke-width:0.0;stroke-dasharray:;"/><path d="M672.8333,338.3542 L672.8333,340.6875 L682.1667,340.6875 L682.1667,338.3542 L672.8333,338.3542 " fill="#000000" style="stroke:;stroke-width:0.0;stroke-dasharray:;"/><path d="M684.1667,338.3542 L684.1667,340.6875 L693.5,340.6875 L693.5,338.3542 L684.1667,338.3542 " fill="#000000" style="stroke:;stroke-width:0.0;stroke-dasharray:;"/><text fill="#000000" font-family="sans-serif" font-size="14" lengthAdjust="spacing" textLength="160.4258" x="698.9502" y="344.3857">created_at : datetime6</text><path d="M661.5,354.651 L661.5,356.9844 L670.8333,356.9844 L670.8333,354.651 L661.5,354.651 " fill="#000000" style="stroke:;stroke-width:0.0;stroke-dasharray:;"/><path d="M672.8333,354.651 L672.8333,356.9844 L682.1667,356.9844 L682.1667,354.651 L672.8333,354.651 " fill="#000000" style="stroke:;stroke-width:0.0;stroke-dasharray:;"/><path d="M684.1667,354.651 L684.1667,356.9844 L693.5,356.9844 L693.5,354.651 L684.1667,354.651 " fill="#000000" style="stroke:;stroke-width:0.0;stroke-dasharray:;"/><text fill="#000000" font-family="sans-serif" font-size="14" lengthAdjust="spacing" textLength="165.0059" x="698.9502" y="360.6826">updated_at : datetime6</text></g><!--class product_attribute--><g id="elem_product_attribute"><rect codeLine="110" fill="#F1F1F1" height="137.7813" id="product_attribute" rx="2.5" ry="2.5" style="stroke:#181818;stroke-width:0.5;" width="296.585" x="394.5" y="15"/><ellipse cx="477.4326" cy="31" fill="#FFAAAA" rx="11" ry="11" style="stroke:#181818;stroke-width:1.0;"/><path d="M478.2764,37.75 L475.8232,37.75 L475.8232,27.5 L472.6826,27.5 L472.6826,25.3594 L481.417,25.3594 L481.417,27.5 L478.2764,27.5 L478.2764,37.75 Z " fill="#000000"/><text fill="#000000" font-family="sans-serif" font-size="14" lengthAdjust="spacing" textLength="122.2197" x="497.9326" y="35.8467">product_attribute</text><line style="stroke:#181818;stroke-width:0.5;" x1="395.5" x2="690.085" y1="47" y2="47"/><path d="M407.9167,54.4635 C406.3067,54.4635 405,55.7702 405,57.3802 C405,57.5669 405,57.7535 405.035,57.9285 L401.5,61.4635 L401.5,63.7969 L405,63.7969 L405,61.4635 L407.3333,61.4635 L407.3333,60.2969 L407.3683,60.2619 C407.5433,60.2969 407.73,60.2969 407.9167,60.2969 C409.5267,60.2969 410.8333,58.9902 410.8333,57.3802 C410.8333,55.7702 409.5267,54.4635 407.9167,54.4635 M408.5,55.6302 C409.1417,55.6302 409.6667,56.1552 409.6667,56.7969 C409.6667,57.4385 409.1417,57.9635 408.5,57.9635 C407.8583,57.9635 407.3333,57.4385 407.3333,56.7969 C407.3333,56.1552 407.8583,55.6302 408.5,55.6302 " fill="#FF0000" style="stroke:;stroke-width:0.0;stroke-dasharray:;"/><path d="M412.8333,57.9635 L412.8333,60.2969 L422.1667,60.2969 L422.1667,57.9635 L412.8333,57.9635 " fill="#000000" style="stroke:;stroke-width:0.0;stroke-dasharray:;"/><path d="M424.1667,57.9635 L424.1667,60.2969 L433.5,60.2969 L433.5,57.9635 L424.1667,57.9635 " fill="#000000" style="stroke:;stroke-width:0.0;stroke-dasharray:;"/><text fill="#000000" font-family="sans-serif" font-size="14" lengthAdjust="spacing" textLength="4.4502" x="434.5" y="63.9951">&#160;</text><text fill="#FF0000" font-family="sans-serif" font-size="14" lengthAdjust="spacing" text-decoration="underline" textLength="62.46" x="438.9502" y="63.9951">id : int11</text><path d="M401.5,74.2604 L401.5,76.5937 L410.8333,76.5937 L410.8333,74.2604 L401.5,74.2604 " fill="#000000" style="stroke:;stroke-width:0.0;stroke-dasharray:;"/><path d="M412.8333,74.2604 L412.8333,76.5937 L422.1667,76.5937 L422.1667,74.2604 L412.8333,74.2604 " fill="#000000" style="stroke:;stroke-width:0.0;stroke-dasharray:;"/><path d="M424.1667,74.2604 L424.1667,76.5937 L433.5,76.5937 L433.5,74.2604 L424.1667,74.2604 " fill="#000000" style="stroke:;stroke-width:0.0;stroke-dasharray:;"/><text fill="#000000" font-family="sans-serif" font-size="14" lengthAdjust="spacing" textLength="199.165" x="438.9502" y="80.292">attribute_id : int10 unsigned</text><path d="M401.5,90.5573 L401.5,92.8906 L410.8333,92.8906 L410.8333,90.5573 L401.5,90.5573 " fill="#000000" style="stroke:;stroke-width:0.0;stroke-dasharray:;"/><path d="M412.8333,90.5573 L412.8333,92.8906 L422.1667,92.8906 L422.1667,90.5573 L412.8333,90.5573 " fill="#000000" style="stroke:;stroke-width:0.0;stroke-dasharray:;"/><path d="M424.1667,90.5573 L424.1667,92.8906 L433.5,92.8906 L433.5,90.5573 L424.1667,90.5573 " fill="#000000" style="stroke:;stroke-width:0.0;stroke-dasharray:;"/><text fill="#000000" font-family="sans-serif" font-size="14" lengthAdjust="spacing" textLength="246.1348" x="438.9502" y="96.5889">training_course_id : int10 unsigned</text><path d="M401.5,106.8542 L401.5,109.1875 L410.8333,109.1875 L410.8333,106.8542 L401.5,106.8542 " fill="#000000" style="stroke:;stroke-width:0.0;stroke-dasharray:;"/><path d="M412.8333,106.8542 L412.8333,109.1875 L422.1667,109.1875 L422.1667,106.8542 L412.8333,106.8542 " fill="#000000" style="stroke:;stroke-width:0.0;stroke-dasharray:;"/><path d="M424.1667,106.8542 L424.1667,109.1875 L433.5,109.1875 L433.5,106.8542 L424.1667,106.8542 " fill="#000000" style="stroke:;stroke-width:0.0;stroke-dasharray:;"/><text fill="#000000" font-family="sans-serif" font-size="14" lengthAdjust="spacing" textLength="160.4258" x="438.9502" y="112.8857">created_at : datetime6</text><path d="M401.5,123.151 L401.5,125.4844 L410.8333,125.4844 L410.8333,123.151 L401.5,123.151 " fill="#000000" style="stroke:;stroke-width:0.0;stroke-dasharray:;"/><path d="M412.8333,123.151 L412.8333,125.4844 L422.1667,125.4844 L422.1667,123.151 L412.8333,123.151 " fill="#000000" style="stroke:;stroke-width:0.0;stroke-dasharray:;"/><path d="M424.1667,123.151 L424.1667,125.4844 L433.5,125.4844 L433.5,123.151 L424.1667,123.151 " fill="#000000" style="stroke:;stroke-width:0.0;stroke-dasharray:;"/><text fill="#000000" font-family="sans-serif" font-size="14" lengthAdjust="spacing" textLength="130.252" x="438.9502" y="129.1826">relevance : double</text><path d="M401.5,139.4479 L401.5,141.7813 L410.8333,141.7813 L410.8333,139.4479 L401.5,139.4479 " fill="#000000" style="stroke:;stroke-width:0.0;stroke-dasharray:;"/><path d="M412.8333,139.4479 L412.8333,141.7813 L422.1667,141.7813 L422.1667,139.4479 L412.8333,139.4479 " fill="#000000" style="stroke:;stroke-width:0.0;stroke-dasharray:;"/><path d="M424.1667,139.4479 L424.1667,141.7813 L433.5,141.7813 L433.5,139.4479 L424.1667,139.4479 " fill="#000000" style="stroke:;stroke-width:0.0;stroke-dasharray:;"/><text fill="#000000" font-family="sans-serif" font-size="14" lengthAdjust="spacing" textLength="165.0059" x="438.9502" y="145.4795">updated_at : datetime6</text></g><!--link learner to customer--><g id="link_learner_customer"><path codeLine="77" d="M218.05,367.76 C263.61,394.97 311.859,423.7831 355.619,449.9231 " fill="none" id="learner-to-customer" style="stroke:#181818;stroke-width:1.0;"/><polygon fill="#181818" points="360.77,453,355.0948,444.9506,356.4775,450.4359,350.9923,451.8186,360.77,453" style="stroke:#181818;stroke-width:1.0;"/><text fill="#000000" font-family="sans-serif" font-size="13" lengthAdjust="spacing" textLength="11.8638" x="304" y="419.0669">id</text><text fill="#000000" font-family="sans-serif" font-size="13" lengthAdjust="spacing" textLength="23.0356" x="205.8327" y="388.1247">0..*</text><text fill="#000000" font-family="sans-serif" font-size="13" lengthAdjust="spacing" textLength="8.271" x="340.6329" y="442.0007">1</text></g><!--link learner_attribute to attribute--><g id="link_learner_attribute_attribute"><path codeLine="88" d="M290.48,161.06 C312.97,186.03 333.7848,209.1515 355.7048,233.4915 " fill="none" id="learner_attribute-to-attribute" style="stroke:#181818;stroke-width:1.0;"/><polygon fill="#181818" points="359.72,237.95,356.6695,228.5855,356.374,234.2346,350.7249,233.9391,359.72,237.95" style="stroke:#181818;stroke-width:1.0;"/><text fill="#000000" font-family="sans-serif" font-size="13" lengthAdjust="spacing" textLength="11.8638" x="329" y="204.0669">id</text><text fill="#000000" font-family="sans-serif" font-size="13" lengthAdjust="spacing" textLength="23.0356" x="272.9309" y="181.1891">0..*</text><text fill="#000000" font-family="sans-serif" font-size="13" lengthAdjust="spacing" textLength="8.271" x="344.9965" y="227.1408">1</text></g><!--link learner_attribute to learner--><g id="link_learner_attribute_learner"><path codeLine="89" d="M186.21,161.06 C173.11,188.9 161.0342,214.5508 148.6942,240.7808 " fill="none" id="learner_attribute-to-learner" style="stroke:#181818;stroke-width:1.0;"/><polygon fill="#181818" points="146.14,246.21,153.5907,239.769,148.2685,241.6857,146.3518,236.3634,146.14,246.21" style="stroke:#181818;stroke-width:1.0;"/><text fill="#000000" font-family="sans-serif" font-size="13" lengthAdjust="spacing" textLength="11.8638" x="171" y="204.0669">id</text><text fill="#000000" font-family="sans-serif" font-size="13" lengthAdjust="spacing" textLength="23.0356" x="158.7227" y="181.1891">0..*</text><text fill="#000000" font-family="sans-serif" font-size="13" lengthAdjust="spacing" textLength="8.271" x="140.9359" y="235.3605">1</text></g><!--link attribute to attribute--><g id="link_attribute_attribute"><path codeLine="99" d="M578.07,289.42 C599.05,292.39 613,298.25 613,307 C613,315.75 604.9908,320.769 584.0108,323.739 " fill="none" id="attribute-to-attribute" style="stroke:#181818;stroke-width:1.0;"/><polygon fill="#181818" points="578.07,324.58,587.5418,327.279,583.0206,323.8792,586.4205,319.358,578.07,324.58" style="stroke:#181818;stroke-width:1.0;"/><text fill="#000000" font-family="sans-serif" font-size="13" lengthAdjust="spacing" textLength="11.8638" x="619" y="311.5669">id</text><text fill="#000000" font-family="sans-serif" font-size="13" lengthAdjust="spacing" textLength="23.0356" x="586.2334" y="285.2806">0..*</text><text fill="#000000" font-family="sans-serif" font-size="13" lengthAdjust="spacing" textLength="8.271" x="585.8758" y="322.1437">1</text></g><!--link product to customer--><g id="link_product_customer"><path codeLine="108" d="M677.34,367.76 C631.5,394.97 582.939,423.7965 538.919,449.9365 " fill="none" id="product-to-customer" style="stroke:#181818;stroke-width:1.0;"/><polygon fill="#181818" points="533.76,453,543.5408,451.8441,538.0591,450.4471,539.4561,444.9654,533.76,453" style="stroke:#181818;stroke-width:1.0;"/><text fill="#000000" font-family="sans-serif" font-size="13" lengthAdjust="spacing" textLength="11.8638" x="613" y="419.0669">id</text><text fill="#000000" font-family="sans-serif" font-size="13" lengthAdjust="spacing" textLength="23.0356" x="640.6941" y="388.1247">0..*</text><text fill="#000000" font-family="sans-serif" font-size="13" lengthAdjust="spacing" textLength="8.271" x="536.8684" y="442.0007">1</text></g><!--link product_attribute to attribute--><g id="link_product_attribute_attribute"><path codeLine="118" d="M505.4,153.11 C490.56,180 476.4398,205.5772 461.5898,232.4772 " fill="none" id="product_attribute-to-attribute" style="stroke:#181818;stroke-width:1.0;"/><polygon fill="#181818" points="458.69,237.73,466.5415,231.784,461.1065,233.3527,459.5378,227.9177,458.69,237.73" style="stroke:#181818;stroke-width:1.0;"/><text fill="#000000" font-family="sans-serif" font-size="13" lengthAdjust="spacing" textLength="11.8638" x="483" y="204.0669">id</text><text fill="#000000" font-family="sans-serif" font-size="13" lengthAdjust="spacing" textLength="23.0356" x="477.5889" y="172.7355">0..*</text><text fill="#000000" font-family="sans-serif" font-size="13" lengthAdjust="spacing" textLength="8.271" x="454.1728" y="226.8981">1</text></g><!--link product_attribute to product--><g id="link_product_attribute_product"><path codeLine="119" d="M615.43,153.11 C647.12,182.91 679.5993,213.4594 710.1893,242.2294 " fill="none" id="product_attribute-to-product" style="stroke:#181818;stroke-width:1.0;"/><polygon fill="#181818" points="714.56,246.34,710.7444,237.2603,710.9178,242.9145,705.2636,243.0878,714.56,246.34" style="stroke:#181818;stroke-width:1.0;"/><text fill="#000000" font-family="sans-serif" font-size="13" lengthAdjust="spacing" textLength="11.8638" x="668" y="204.0669">id</text><text fill="#000000" font-family="sans-serif" font-size="13" lengthAdjust="spacing" textLength="23.0356" x="598.45" y="172.7355">0..*</text><text fill="#000000" font-family="sans-serif" font-size="13" lengthAdjust="spacing" textLength="8.271" x="698.7982" y="235.5056">1</text></g><!--SRC=[pLTjJniv4FwUNp5i4IHj8A6ddgeeHAguGwhWe7U5pv6pdYG-lFQUN-2ugl_znbulIQ1vA-eTI8kzwvd7usUU6Ilxu5MkYmAL0pT5a48XZ53gEn1ZkDT-to1uAzG4oApq3WtS2JS51WQTK0ouiALazurzi3T2bSom0dWfuATkjx4p9dGdj88hDfBOt5Mim5O3O8USlL6GvP9P2ncyWRX6OmRzFZIlsgzEJp_GNmi6WwonWuhNMBJJNOY9ujIImrWRA8qecBc76mnnJ0oYed0bhOHLhyHV7cc1AKul78tDDHqhh2djXifBEHSgEVf2LR6sOTVTbs48HiTPHhFofXh7QQpWQHuFjYiPqGV7a6KDUj-7Nof-OcoqJgms2GAEoUBJMGPxUm49TkZrz2n2B83qup5w1lcWlqSGWtudVY5Eo0wbnIM0nwi1HzBZIiJr497cPHXFVFOAeRnD1egByI8xWTuW4H0vPRZcANoDOLnSdvy_2IHDtWJq4LDBDv-tMnr5bSh56DAt4CNrnSVVhtzT6GVpNEW3MsBkZ2-U4L8gAwWCXOhLQSHawfAocv_Esd1ApqYxQPk4h71HWBCz88BlLiB-JB65rOTowrNb5tI-lK3d3k87SsADa7CR1eEaaNx7VwzwlxLRLF9Msss7NybyqmsM0SxvBYIwReILuUC-HvcbVklOn0AxPI9MI8- -zmNjAWPXDcBvJU_aylpoZuSYRCCTkM7IYI3VD8qfft7g2fa-vPg7pjYCtVRaf1NQE6AFJ5pPwtH8WihvGXvIy-_4NetsCBY_-eqwQ6CgE4A1RggvhLuiNH2eWvPiOtOVHCyFpXaneXla8vNNP_4FGhT1sz7D8vmWyxbfTLlatZfTe6d15s8gjULCS6gwcL3kw2XCBYwl87Q7TXGG_OzFQy4Z08y5ch1qoqm-PURexVl7xlKpL-OrH6wGEUH3ve81fxaJ1Vwy3671rvTyIz-lZSI0H6RKSWAwrB2ic2Za6p9HCpfSGU8A5l1logvYChad9j- -U_U2cKmKGjOzF7oTmS710BAZ36ecGlUZqpmYd7P8MdskzXw0XfkaxPiGTKpV3V0SocaxAcXRUMfF76qOyotABNsUaTrPlXxdURQG4htMenRCeZ3M2cBhMYnOMSRJhXN8slpCId8cpHzRYSumPIKBrvGDYtzQhNvOaZTFRafMQJJtkNkXRNEp2du1hJFHk67hJDOlgdMIJ8MYtwx3N7jZyVzfeGQf6pALut_G3vyaOMt9hFMeLP3i_mK0]--></g></svg>
